#N canvas 675 231 563 427 10;
#X obj 72 201 phasor~;
#X obj 73 287 *~;
#X floatatom 106 253 5 0 0 0 - - -, f 5;
#X obj 106 294 pad~;
#X floatatom 128 150 5 0 0 0 - - -, f 5;
#X obj 91 85 r sc16;
#X obj 131 185 r bt;
#X obj 72 257 *~;
#X obj 246 207 phasor~;
#X obj 323 168 r bt;
#X obj 246 258 *~;
#X obj 295 89 r sc16;
#X obj 58 327 adac~;
#X obj 231 328 adac~;
#X obj 246 294 *~;
#X floatatom 279 259 5 0 0 0 - - -, f 5;
#X obj 279 300 pad~;
#X obj 327 377 mix~;
#X floatatom 327 314 5 0 0 0 - - -, f 5;
#X obj 327 333 * 0.01;
#X obj 327 355 pad~;
#N canvas 978 64 367 208 scale 0;
#X obj 174 177 s scale;
#X obj 83 41 sel 0 1 2 3 4 5 6 7 xxxxxxxxxxxxxxxxxxxx;
#X obj 83 17 r bar;
#X floatatom 45 42 5 0 0 0 - - -, f 5;
#X msg 190 73 d 3 8 10;
#X msg 202 97 k d+2;
#X msg 276 106 k d+2;
#X msg 262 84 list d-3 4 7 11;
#X msg 88 98 list d-3 2 3 7;
#X msg 35 76 list d+2 2 4 7;
#X msg 128 120 list d+3 2 4 7;
#X obj 62 177 s dig;
#X msg 76 147 -3;
#X msg 48 147 0;
#X obj 269 177 s dig;
#X msg 240 147 -1;
#X msg 268 147 -4;
#X msg 298 147 -2;
#X connect 1 0 9 0;
#X connect 1 1 8 0;
#X connect 1 2 10 0;
#X connect 1 3 8 0;
#X connect 1 4 4 0;
#X connect 1 5 5 0;
#X connect 1 6 7 0;
#X connect 1 7 6 0;
#X connect 2 0 1 0;
#X connect 2 0 3 0;
#X connect 4 0 0 0;
#X connect 5 0 0 0;
#X connect 5 0 15 0;
#X connect 6 0 0 0;
#X connect 6 0 17 0;
#X connect 7 0 0 0;
#X connect 7 0 16 0;
#X connect 8 0 0 0;
#X connect 8 0 12 0;
#X connect 9 0 0 0;
#X connect 9 0 13 0;
#X connect 10 0 0 0;
#X connect 10 0 13 0;
#X connect 12 0 11 0;
#X connect 13 0 11 0;
#X connect 15 0 14 0;
#X connect 16 0 14 0;
#X connect 17 0 14 0;
#X restore 314 50 pd scale;
#X obj 157 47 r scale;
#N canvas 470 73 484 323 metro 0;
#X floatatom 62 128 5 0 0 0 - - -, f 5;
#X obj 100 126 counter 2 0 16;
#X obj 100 85 metro 150;
#X obj 66 107 s bt;
#X obj 74 225 s sc16;
#X obj 124 225 sel;
#X obj 138 269 s bar;
#X obj 92 165 t f f;
#X obj 100 63 inlet;
#X floatatom 257 110 5 0 0 0 - - -, f 5;
#X obj 171 89 count 32;
#X obj 124 247 count 8;
#X obj 91 190 +;
#X obj 221 156 unpack 0 0 0;
#X obj 219 259 f;
#X obj 259 259 f;
#X obj 221 132 r events;
#X obj 219 237 b;
#X obj 259 237 b;
#X floatatom 141 37 5 0 0 0 - - -, f 5;
#X obj 141 59 s mt;
#X obj 282 196 moses;
#N canvas 742 340 550 448 events 0;
#X obj 232 379 s events;
#X msg 445 274 0 4 30;
#X msg 46 274 4 0 1;
#X msg 347 274 0 4 31;
#X msg 151 274 4 0 2;
#X obj 75 231 r mt;
#X msg 247 274 0 4 29;
#X obj 151 252 del;
#X obj 46 252 del;
#X obj 247 252 del;
#X obj 445 252 del;
#X obj 41 296 bng 15 250 50 0 empty empty empty 17 7 0 10 -262144 -1
-1;
#X obj 146 296 bng 15 250 50 0 empty empty empty 17 7 0 10 -262144
-1 -1;
#X obj 252 296 bng 15 250 50 0 empty empty empty 17 7 0 10 -262144
-1 -1;
#X obj 352 296 bng 15 250 50 0 empty empty empty 17 7 0 10 -262144
-1 -1;
#X obj 450 296 bng 15 250 50 0 empty empty empty 17 7 0 10 -262144
-1 -1;
#X obj 75 252 * 16;
#X obj 180 230 r mt;
#X obj 180 252 * 16;
#X obj 276 230 r mt;
#X obj 276 252 * 16;
#X obj 474 230 r mt;
#X obj 474 252 * 16;
#X obj 124 48 r bar;
#X obj 124 72 sel 0 1 2 3 4 5 6 7 xxxxxxxxxxxxxxxxxxxxxxxxxxxx;
#X connect 1 0 0 0;
#X connect 1 0 15 0;
#X connect 2 0 0 0;
#X connect 2 0 11 0;
#X connect 3 0 0 0;
#X connect 3 0 14 0;
#X connect 4 0 0 0;
#X connect 4 0 12 0;
#X connect 5 0 16 0;
#X connect 6 0 0 0;
#X connect 6 0 13 0;
#X connect 7 0 4 0;
#X connect 8 0 2 0;
#X connect 9 0 6 0;
#X connect 10 0 1 0;
#X connect 16 0 8 1;
#X connect 17 0 18 0;
#X connect 18 0 7 1;
#X connect 19 0 20 0;
#X connect 20 0 9 1;
#X connect 21 0 22 0;
#X connect 22 0 10 1;
#X connect 23 0 24 0;
#X connect 24 0 1 0;
#X connect 24 0 8 0;
#X connect 24 1 4 0;
#X connect 24 1 9 0;
#X connect 24 2 1 0;
#X connect 24 2 8 0;
#X connect 24 3 4 0;
#X connect 24 3 9 0;
#X connect 24 4 2 0;
#X connect 24 4 10 0;
#X connect 24 5 3 0;
#X connect 24 5 7 0;
#X connect 24 6 2 0;
#X connect 24 6 10 0;
#X connect 24 7 3 0;
#X restore 385 288 pd events;
#X msg 203 20 149.8;
#X obj 253 33 loadbang;
#X text 37 287 non-complicated alternative: [moses 2] f's-> 4|0;
#X msg 186 64 reset \$1;
#X msg 249 87 goto \$1;
#X msg 249 56 0;
#X obj 295 235 f;
#X floatatom 295 259 5 0 0 0 - - -, f 5;
#X connect 1 0 0 0;
#X connect 1 0 7 0;
#X connect 2 0 1 0;
#X connect 2 0 3 0;
#X connect 2 0 10 0;
#X connect 5 0 11 0;
#X connect 7 0 12 0;
#X connect 7 1 5 0;
#X connect 8 0 2 0;
#X connect 10 0 9 0;
#X connect 10 0 21 0;
#X connect 11 0 6 0;
#X connect 12 0 4 0;
#X connect 13 0 14 1;
#X connect 13 1 15 1;
#X connect 13 2 21 1;
#X connect 14 0 12 1;
#X connect 14 0 29 0;
#X connect 15 0 12 1;
#X connect 15 0 29 0;
#X connect 16 0 13 0;
#X connect 17 0 14 0;
#X connect 18 0 15 0;
#X connect 19 0 2 1;
#X connect 19 0 20 0;
#X connect 21 0 17 0;
#X connect 21 1 18 0;
#X connect 23 0 19 0;
#X connect 24 0 23 0;
#X connect 24 0 28 0;
#X connect 26 0 10 0;
#X connect 27 0 1 0;
#X connect 28 0 26 0;
#X connect 28 0 27 0;
#X connect 29 0 30 0;
#X restore 249 50 pd metro;
#X obj 249 30 tgl 15 0 empty empty empty 17 7 0 10 -262144 -1 -1 1
1;
#X floatatom 372 155 5 0 0 0 - - -, f 5;
#X obj 372 173 % 150;
#X obj 246 141 pipe 300;
#X obj 310 190 del;
#X obj 404 107 r mt;
#X obj 372 131 * 2;
#X floatatom 380 212 5 0 0 0 - - -, f 5;
#X floatatom 197 205 5 0 0 0 - - -, f 5;
#X msg 154 118 oct \$1;
#X floatatom 154 99 5 0 0 0 - - -, f 5;
#X obj 169 247 loadbang;
#X floatatom 129 166 5 0 0 0 - - -, f 5;
#X floatatom 285 163 5 0 0 0 - - -, f 5;
#X text 313 294 master vol;
#X msg 165 273 45;
#X floatatom 163 186 5 0 0 0 - - -, f 5;
#X floatatom 338 194 5 0 0 0 - - -, f 5;
#X obj 246 163 muse;
#X obj 72 158 muse;
#X obj 297 24 r play;
#X obj 404 302 r vol;
#X text 70 42 myQuil;
#X msg 198 271 30;
#X obj 72 180 pad~ 2;
#X obj 246 185 pad~ 2;
#X obj 310 212 ad~ 10 200;
#X obj 131 206 ad~ 3 185;
#N canvas 747 546 450 300 info 0;
#X text 174 77 artist : Nobuo Uematsu;
#X text 181 91 title : Final Fantasy;
#X text 174 105 length : 195000;
#X restore 371 83 pd info;
#X obj 443 325 del 180000;
#X msg 372 382 15000;
#X obj 443 347 t;
#X msg 382 351 0;
#X obj 460 271 r play;
#X obj 36 225 expr~ $v1 > 0.75;
#X obj 217 228 expr~ $v1 > 0.9;
#X obj 445 50 cupqb;
#X msg 445 117 k \$1;
#X obj 445 139 s scale;
#X obj 418 26 ii 44;
#X obj 471 87 r dig;
#X obj 445 87 +;
#X msg 477 202 ot \$1;
#X obj 477 166 cupqb;
#X obj 413 180 * 1.33;
#X obj 198 182 * 1.23;
#X obj 279 278 / 100;
#X obj 106 272 / 100;
#X msg 37 107 peek;
#X obj 231 79 b;
#X obj 75 111 f;
#X obj 277 115 f;
#X obj 198 159 r mt;
#X connect 0 0 58 0;
#X connect 1 0 12 0;
#X connect 1 0 12 1;
#X connect 2 0 71 0;
#X connect 3 0 1 1;
#X connect 4 0 43 1;
#X connect 5 0 74 0;
#X connect 6 0 51 0;
#X connect 7 0 1 0;
#X connect 8 0 59 0;
#X connect 9 0 28 0;
#X connect 10 0 14 0;
#X connect 11 0 75 0;
#X connect 14 0 13 0;
#X connect 14 0 13 1;
#X connect 15 0 70 0;
#X connect 16 0 14 1;
#X connect 18 0 19 0;
#X connect 19 0 20 0;
#X connect 20 0 17 0;
#X connect 22 0 42 0;
#X connect 22 0 43 0;
#X connect 24 0 23 0;
#X connect 25 0 26 0;
#X connect 25 0 27 1;
#X connect 26 0 28 1;
#X connect 27 0 42 0;
#X connect 28 0 50 0;
#X connect 29 0 30 0;
#X connect 29 0 26 1;
#X connect 29 0 68 0;
#X connect 30 0 25 0;
#X connect 31 0 50 2;
#X connect 32 0 51 2;
#X connect 33 0 42 0;
#X connect 33 0 43 0;
#X connect 34 0 33 0;
#X connect 35 0 47 0;
#X connect 35 0 39 0;
#X connect 36 0 48 1;
#X connect 37 0 49 1;
#X connect 39 0 2 0;
#X connect 40 0 51 1;
#X connect 41 0 50 1;
#X connect 42 0 49 0;
#X connect 43 0 48 0;
#X connect 44 0 24 0;
#X connect 45 0 20 0;
#X connect 47 0 15 0;
#X connect 48 0 0 0;
#X connect 49 0 8 0;
#X connect 50 0 10 1;
#X connect 51 0 7 1;
#X connect 53 0 55 0;
#X connect 54 0 20 1;
#X connect 55 0 56 0;
#X connect 55 1 54 0;
#X connect 56 0 20 0;
#X connect 57 0 53 0;
#X connect 58 0 7 0;
#X connect 59 0 10 0;
#X connect 60 0 65 0;
#X connect 60 0 73 0;
#X connect 61 0 62 0;
#X connect 63 0 60 0;
#X connect 64 0 65 1;
#X connect 65 0 61 0;
#X connect 66 0 62 0;
#X connect 67 0 66 0;
#X connect 68 0 31 0;
#X connect 69 0 32 0;
#X connect 70 0 16 0;
#X connect 71 0 3 0;
#X connect 72 0 43 0;
#X connect 73 0 74 0;
#X connect 73 0 75 0;
#X connect 74 0 43 0;
#X connect 75 0 27 0;
#X connect 76 0 69 0;
