#N canvas 393 312 610 556 14;
#X obj 85 277 phasor~;
#X obj 85 464 *~;
#X floatatom 122 412 5 0 0 0 - - -;
#X obj 122 464 zp~;
#X obj 85 133 r sc16;
#X obj 106 340 r bt;
#X obj 85 437 *~;
#X obj 168 277 phasor~;
#X obj 258 437 *~;
#X obj 168 133 r sc16;
#X obj 85 491 add~;
#X obj 258 491 add~;
#X obj 258 464 *~;
#X floatatom 296 412 5 0 0 0 - - -;
#X obj 296 464 zp~;
#X obj 411 376 all~;
#N canvas 1071 312 489 467 metro 0;
#X floatatom 91 233 0 0 0 0 - - -;
#X obj 126 201 counter 2 0 16;
#X obj 126 119 metro 150;
#X obj 190 174 s bt;
#X obj 126 294 s sc16;
#X obj 185 294 sel;
#X obj 185 349 s bar;
#X obj 126 233 t f f;
#X obj 126 92 inlet;
#X floatatom 251 156 0 0 0 0 - - -;
#X obj 251 112 count 32;
#X obj 185 321 count 8;
#X obj 126 267 +;
#X obj 329 112 unpack 0 0 0;
#X obj 308 267 f;
#X obj 354 267 f;
#X obj 329 85 r events;
#X obj 308 240 b;
#X obj 354 240 b;
#X obj 282 156 moses;
#N canvas 447 333 550 448 events 0;
#X obj 232 379 s events;
#X msg 425 274 0 4 30;
#X msg 46 274 4 0 1;
#X msg 347 274 0 4 31;
#X msg 128 274 4 0 2;
#X obj 80 181 r mt;
#X msg 247 274 0 4 29;
#X obj 154 247 del;
#X obj 46 207 del;
#X obj 247 247 del;
#X obj 425 247 del;
#X obj 41 306 bng 15 250 50 0 empty empty empty 17 7 0 10 -1 -262144
-262144;
#X obj 123 306 bng 15 250 50 0 empty empty empty 17 7 0 10 -1 -262144
-262144;
#X obj 252 306 bng 15 250 50 0 empty empty empty 17 7 0 10 -1 -262144
-262144;
#X obj 352 306 bng 15 250 50 0 empty empty empty 17 7 0 10 -1 -262144
-262144;
#X obj 430 306 bng 15 250 50 0 empty empty empty 17 7 0 10 -1 -262144
-262144;
#X obj 80 207 * 16;
#X obj 188 220 r mt;
#X obj 188 247 * 16;
#X obj 281 220 r mt;
#X obj 281 247 * 16;
#X obj 459 220 r mt;
#X obj 459 247 * 16;
#X obj 85 47 r bar;
#X obj 85 71 sel 0 1 2 3 4 5 6 7, f 44;
#X connect 1 0 0 0;
#X connect 1 0 15 0;
#X connect 2 0 0 0;
#X connect 2 0 11 0;
#X connect 3 0 0 0;
#X connect 3 0 14 0;
#X connect 4 0 0 0;
#X connect 4 0 12 0;
#X connect 5 0 16 0;
#X connect 6 0 0 0;
#X connect 6 0 13 0;
#X connect 7 0 4 0;
#X connect 8 0 2 0;
#X connect 9 0 6 0;
#X connect 10 0 1 0;
#X connect 16 0 8 1;
#X connect 17 0 18 0;
#X connect 18 0 7 1;
#X connect 19 0 20 0;
#X connect 20 0 9 1;
#X connect 21 0 22 0;
#X connect 22 0 10 1;
#X connect 23 0 24 0;
#X connect 24 0 1 0;
#X connect 24 0 8 0;
#X connect 24 1 4 0;
#X connect 24 1 9 0;
#X connect 24 2 1 0;
#X connect 24 2 8 0;
#X connect 24 3 4 0;
#X connect 24 3 9 0;
#X connect 24 4 2 0;
#X connect 24 4 10 0;
#X connect 24 5 3 0;
#X connect 24 5 7 0;
#X connect 24 6 2 0;
#X connect 24 6 10 0;
#X connect 24 7 3 0;
#X restore 343 360 pd events;
#X obj 58 30 loadbang;
#X text 31 394 non-complicated alternative: [moses 2] f's-> 4|0;
#X msg 251 85 reset \$1;
#X msg 58 166 goto \$1;
#X msg 58 63 0;
#X obj 332 300 f;
#X floatatom 332 327 5 0 0 0 - - -;
#X obj 177 92 r mt;
#X floatatom 87 294 0 0 0 0 - - -;
#X obj 126 166 t;
#X connect 1 0 0 0;
#X connect 1 0 7 0;
#X connect 2 0 3 0;
#X connect 2 0 30 0;
#X connect 5 0 11 0;
#X connect 7 0 12 0;
#X connect 7 1 5 0;
#X connect 8 0 2 0;
#X connect 10 0 9 0;
#X connect 10 0 19 0;
#X connect 11 0 6 0;
#X connect 12 0 4 0;
#X connect 12 0 29 0;
#X connect 13 0 14 1;
#X connect 13 1 15 1;
#X connect 13 2 19 1;
#X connect 14 0 12 1;
#X connect 14 0 26 0;
#X connect 15 0 12 1;
#X connect 15 0 26 0;
#X connect 16 0 13 0;
#X connect 17 0 14 0;
#X connect 18 0 15 0;
#X connect 19 0 17 0;
#X connect 19 1 18 0;
#X connect 21 0 25 0;
#X connect 23 0 10 0;
#X connect 24 0 1 0;
#X connect 25 0 23 0;
#X connect 25 0 24 0;
#X connect 26 0 27 0;
#X connect 28 0 2 1;
#X connect 30 0 10 0;
#X connect 30 1 1 0;
#X restore 375 282 pd metro;
#X obj 375 262 tgl 15 0 empty empty empty 17 7 0 10 -1 -262144 -262144
1 1;
#X obj 210 162 r mt;
#X obj 210 191 * 2;
#X floatatom 201 334 5 0 0 0 - - -;
#X obj 177 408 loadbang;
#X text 453 346 master vol;
#X msg 172 437 45;
#X obj 168 225 muse;
#X obj 85 225 muse;
#X obj 375 236 r play;
#X text 62 40 myQwil;
#X msg 210 437 30;
#X obj 85 251 zp~ 2;
#X obj 168 251 zp~ 2;
#X obj 278 388 ad~ 10 200;
#X obj 106 380 ad~ 3 185;
#N canvas 747 546 450 300 info 0;
#X text 174 77 artist : Nobuo Uematsu;
#X text 181 91 title : Final Fantasy;
#X text 174 105 length : 195000;
#X restore 59 62 pd info;
#X obj 466 413 del 180000;
#X obj 466 386 r play;
#X obj 238 85 cupqb;
#X msg 257 162 x \$1;
#X obj 289 89 r dig;
#X obj 257 133 +;
#X msg 350 143 ot \$1;
#X obj 350 92 cupqb;
#X obj 309 326 * 1.33;
#X obj 249 326 * 1.23;
#X obj 296 437 / 100;
#X obj 122 437 / 100;
#X obj 85 162 f;
#X obj 168 162 f;
#X obj 295 276 r mt;
#X obj 410 92 cupqb;
#X obj 410 143 s mt;
#X obj 390 474 dac~;
#X obj 390 443 *~;
#X obj 375 208 s play;
#X obj 393 326 hsl 128 15 0.001 1 1 0 empty empty empty -2 -8 0 10
-1 -262144 -262144 7600 1;
#X obj 257 209 s muse;
#X obj 97 191 r muse;
#N canvas 1003 533 396 335 chords 0;
#X obj 69 40 r bar;
#X floatatom 37 69 0 0 0 0 - - -;
#X msg 183 100 d 3 8 10;
#X msg 212 126 x d+2;
#X msg 269 141 x d+2;
#X obj 83 255 s dig;
#X msg 97 225 -3;
#X msg 69 225 0;
#X obj 240 255 s dig;
#X msg 212 225 -1;
#X msg 240 225 -4;
#X msg 269 225 -2;
#X obj 69 69 sel 0 1 2 3 4 5 6 7, f 29;
#X msg 240 172 l d-3 4 7 11;
#X msg 69 100 l d+2 2 4 7;
#X msg 97 126 l d-3 2 3 7;
#X msg 126 152 l d+3 2 4 7;
#X obj 151 255 s muse;
#X connect 0 0 1 0;
#X connect 0 0 12 0;
#X connect 2 0 17 0;
#X connect 3 0 9 0;
#X connect 3 0 17 0;
#X connect 4 0 11 0;
#X connect 4 0 17 0;
#X connect 6 0 5 0;
#X connect 7 0 5 0;
#X connect 9 0 8 0;
#X connect 10 0 8 0;
#X connect 11 0 8 0;
#X connect 12 0 14 0;
#X connect 12 1 15 0;
#X connect 12 2 16 0;
#X connect 12 3 15 0;
#X connect 12 4 2 0;
#X connect 12 5 3 0;
#X connect 12 6 13 0;
#X connect 12 7 4 0;
#X connect 13 0 10 0;
#X connect 13 0 17 0;
#X connect 14 0 7 0;
#X connect 14 0 17 0;
#X connect 15 0 6 0;
#X connect 15 0 17 0;
#X connect 16 0 7 0;
#X connect 16 0 17 0;
#X restore 459 236 pd chords;
#X obj 390 346 zp~ 100;
#X obj 390 413 *~;
#X msg 430 413 1;
#X obj 375 184 bng 15 250 50 0 empty empty empty 17 7 0 10 -1 -262144
-262144;
#X msg 466 440 0 15000;
#X obj 466 469 line~;
#X obj 85 303 >~ 0.75;
#X obj 168 303 >~ 0.875;
#X obj 168 191 pipe;
#X obj 268 235 b;
#X floatatom 156 347 0 0 0 0 - - -;
#X msg 34 175 peek;
#X msg 427 63 149.8;
#X obj 341 30 loadbang;
#X msg 255 56 44 \, set 46;
#X connect 0 0 64 0;
#X connect 1 0 10 0;
#X connect 2 0 45 0;
#X connect 3 0 1 1;
#X connect 4 0 46 0;
#X connect 5 0 32 0;
#X connect 6 0 1 0;
#X connect 7 0 65 0;
#X connect 8 0 12 0;
#X connect 9 0 47 0;
#X connect 12 0 11 0;
#X connect 13 0 44 0;
#X connect 14 0 12 1;
#X connect 15 0 59 1;
#X connect 17 0 16 0;
#X connect 18 0 19 0;
#X connect 19 0 66 1;
#X connect 20 0 32 2;
#X connect 20 0 31 2;
#X connect 21 0 28 0;
#X connect 21 0 23 0;
#X connect 23 0 2 0;
#X connect 24 0 30 0;
#X connect 25 0 29 0;
#X connect 26 0 17 0;
#X connect 28 0 13 0;
#X connect 29 0 0 0;
#X connect 30 0 7 0;
#X connect 31 0 8 1;
#X connect 32 0 6 1;
#X connect 34 0 62 0;
#X connect 35 0 34 0;
#X connect 35 0 60 0;
#X connect 36 0 39 0;
#X connect 37 0 55 0;
#X connect 38 0 39 1;
#X connect 39 0 37 0;
#X connect 40 0 55 0;
#X connect 41 0 40 0;
#X connect 42 0 31 2;
#X connect 43 0 32 2;
#X connect 44 0 14 0;
#X connect 45 0 3 0;
#X connect 46 0 25 0;
#X connect 47 0 66 0;
#X connect 48 0 43 0;
#X connect 48 0 42 0;
#X connect 49 0 50 0;
#X connect 52 0 51 0;
#X connect 52 0 51 1;
#X connect 54 0 58 0;
#X connect 56 0 24 0;
#X connect 56 0 25 0;
#X connect 58 0 59 0;
#X connect 59 0 52 0;
#X connect 60 0 63 0;
#X connect 61 0 53 0;
#X connect 62 0 63 0;
#X connect 63 0 52 1;
#X connect 64 0 6 0;
#X connect 65 0 8 0;
#X connect 66 0 24 0;
#X connect 66 0 67 0;
#X connect 67 0 31 0;
#X connect 68 0 32 1;
#X connect 68 0 31 1;
#X connect 69 0 25 0;
#X connect 70 0 49 1;
#X connect 71 0 72 0;
#X connect 71 0 70 0;
#X connect 72 0 36 1;
