#N canvas 696 355 495 300 12;
#X text 201 30 HOW FLOATS WORK;
#X obj 104 67 cupqbl;
#X obj 61 67 cupqbl;
#X obj 17 20 tgl 15 0 empty empty empty 17 7 0 10 -262144 -1 -1 0 1
;
#X obj 17 40 metro 500;
#X msg 17 65 +;
#X floatatom 89 138 12 0 0 0 - - -, f 12;
#X obj 179 113 radx 2;
#X symbolatom 179 138 12 0 0 0 - - -, f 12;
#X obj 83 160 sploat;
#X obj 32 259 mantissal;
#X obj 102 185 - 127;
#X floatatom 188 84 5 0 0 0 - - -, f 5;
#X text 228 77 place value;
#X text 228 97 (# of zeros before/after the first 1);
#X text 179 162 followed by the mantissa;
#X obj 92 210 expr pow(2 \, $f1);
#X floatatom 92 235 12 0 0 0 - - -, f 12;
#X obj 83 115 #/;
#X connect 1 0 18 1;
#X connect 2 0 18 0;
#X connect 3 0 4 0;
#X connect 4 0 5 0;
#X connect 5 0 2 0;
#X connect 7 0 8 0;
#X connect 9 0 10 0;
#X connect 9 1 11 0;
#X connect 11 0 12 0;
#X connect 11 0 16 0;
#X connect 16 0 17 0;
#X connect 18 0 7 0;
#X connect 18 0 9 0;
#X connect 18 0 6 0;
