#N canvas 749 342 494 300 12;
#X obj 169 103 radx 2;
#X obj 94 57 cupqbl;
#X obj 51 57 cupqbl;
#X obj 73 105 /;
#X obj 72 30 b, f 1;
#X obj 22 249 mantissal;
#X obj 73 150 sploat;
#X obj 92 175 - 127;
#X floatatom 82 225 12 0 0 0 - - -, f 12;
#X obj 82 200 expr pow(2 \, $f1);
#X floatatom 79 128 12 0 0 0 - - -, f 12;
#X floatatom 178 74 5 0 0 0 - - -, f 5;
#X symbolatom 169 128 12 0 0 0 - - -, f 12;
#X text 169 152 followed by the mantissa;
#X text 191 20 HOW FLOATS WORK;
#X text 218 67 # of decimal point shifts;
#X text 218 87 (zeros before/after the first 1);
#X connect 0 0 12 0;
#X connect 1 0 3 1;
#X connect 1 0 4 0;
#X connect 2 0 3 0;
#X connect 3 0 0 0;
#X connect 3 0 6 0;
#X connect 3 0 10 0;
#X connect 4 0 2 0;
#X connect 6 0 5 0;
#X connect 6 1 7 0;
#X connect 7 0 11 0;
#X connect 7 0 9 0;
#X connect 9 0 8 0;
