#N canvas 317 348 495 318 12;
#X text 201 30 HOW FLOATS WORK;
#X obj 104 67 cupqbl;
#X obj 61 67 cupqbl;
#X obj 17 20 tgl 15 0 empty empty empty 17 7 0 10 -262144 -1 -1 0 1
;
#X obj 17 40 metro 500;
#X msg 17 65 +;
#X floatatom 89 138 0 0 0 0 - - -;
#X obj 179 113 radx 2;
#X symbolatom 179 138 0 0 0 0 - - -;
#X obj 83 160 sploat;
#X obj 102 185 - 127;
#X floatatom 188 84 0 0 0 0 - - -;
#X text 228 77 place value;
#X text 228 97 (# of zeros before/after the first 1);
#X text 179 162 followed by the mantissa;
#X obj 92 210 expr pow(2 \, $f1);
#X floatatom 92 235 0 0 0 0 - - -;
#X obj 83 115 #/;
#X msg 146 60 p 24;
#X obj 14 265 mantr;
#X floatatom 14 292 0 0 0 0 - - -;
#X obj 16 171 cupqb;
#X obj 279 214 @pow 2;
#X floatatom 285 187 5 0 0 0 - - -, f 5;
#X floatatom 279 239 5 0 0 0 - - -, f 5;
#X obj 227 201 * -1;
#X connect 1 0 17 1;
#X connect 2 0 17 0;
#X connect 3 0 4 0;
#X connect 4 0 5 0;
#X connect 5 0 2 0;
#X connect 7 0 8 0;
#X connect 9 0 19 0;
#X connect 9 1 10 0;
#X connect 10 0 11 0;
#X connect 10 0 15 0;
#X connect 15 0 16 0;
#X connect 17 0 7 0;
#X connect 17 0 9 0;
#X connect 17 0 6 0;
#X connect 18 0 7 0;
#X connect 19 0 20 0;
#X connect 21 0 19 0;
#X connect 22 0 24 0;
#X connect 22 0 25 0;
#X connect 23 0 22 0;
#X connect 25 0 21 0;
