#N canvas 317 348 616 416 14;
#X obj 113 26 tgl 15 0 empty empty empty 17 7 0 10 -262144 -1 -1 0
1;
#X obj 113 46 metro 500;
#X msg 113 71 +;
#X floatatom 141 179 0 0 0 0 - - -;
#X symbolatom 229 198 0 0 0 0 - - -;
#X obj 128 220 sploat;
#X obj 150 250 - 127;
#X floatatom 229 225 0 0 0 0 - - -;
#X text 258 226 place value;
#X text 226 247 (# of zeros before/after the first 1);
#X obj 150 278 expr pow(2 \, $f1);
#X floatatom 150 304 0 0 0 0 - - -;
#X obj 128 150 #/;
#X msg 229 145 p 24;
#X obj 44 335 mantrb;
#X floatatom 44 362 0 0 0 0 - - -;
#X obj 44 241 cupqb;
#X obj 49 172 @pow 2;
#X floatatom 49 145 5 0 0 0 - - -;
#X obj 49 201 * -1;
#X obj 113 100 cupqb;
#X obj 161 100 cupqb;
#X obj 229 172 radix 2;
#X obj 327 75 cnv 15 186 22 empty empty how_floats_work 2 10 0 16 -1
-228856 0;
#X connect 0 0 1 0;
#X connect 1 0 2 0;
#X connect 2 0 20 0;
#X connect 5 0 14 0;
#X connect 5 1 6 0;
#X connect 6 0 7 0;
#X connect 6 0 10 0;
#X connect 10 0 11 0;
#X connect 12 0 5 0;
#X connect 12 0 22 0;
#X connect 12 0 3 0;
#X connect 13 0 22 0;
#X connect 14 0 15 0;
#X connect 16 0 14 0;
#X connect 17 0 19 0;
#X connect 18 0 17 0;
#X connect 19 0 16 1;
#X connect 20 0 12 0;
#X connect 21 0 12 1;
#X connect 22 0 4 0;
