#N canvas 526 159 941 721 12;
#N canvas 0 50 450 300 (subpatch) 0;
#X array wave 500 float 0 black black;
#X coords 0 0 499 1 0 0 0;
#X restore 746 40 graph;
#X obj 258 621 *~;
#X obj 236 679 dac~;
#X obj 708 179 bng 15 250 50 0 empty empty empty 17 7 0 10 -262144
-1 -1;
#X obj 247 387 cos~;
#X obj 130 353 lop~;
#X obj 60 596 tabwrite~ wave;
#N canvas 0 50 450 300 (subpatch) 0;
#X array cos 500 float 0 black black;
#X coords 0 0 499 1 0 0 0;
#X restore 746 195 graph;
#X obj 400 677 tabwrite~ cos;
#X obj 246 472 lop~;
#X obj 181 367 line;
#X obj 662 200 metro 37;
#X obj 379 381 line;
#X obj 662 225 s wm;
#X obj 62 570 r wm;
#X obj 407 650 r wm;
#X obj 662 177 tgl 15 0 empty empty empty 17 7 0 10 -262144 -1 -1 0
1;
#X obj 145 503 *~;
#X obj 246 500 *~;
#X obj 374 410 vsl 15 128 0 1 0 0 empty empty empty 0 -9 0 10 -262144
-1 -1 3810 1;
#X obj 58 263 vsl 15 128 0 1 0 0 empty empty empty 0 -9 0 10 -262144
-1 -1 0 1;
#X obj 399 471 cos~;
#X obj 398 526 *~;
#X obj 574 158 vsl 15 128 0 1 0 0 empty empty empty 0 -9 0 10 -262144
-1 -1 1270 1;
#X floatatom 79 385 5 0 0 0 - - -, f 5;
#X floatatom 318 561 5 0 0 0 - - -, f 5;
#X floatatom 452 517 5 0 0 0 - - -, f 5;
#X obj 142 218 -~;
#X msg 58 234 0;
#X obj 397 314 + 125;
#X obj 181 318 + 100;
#X obj 398 496 lop~;
#X floatatom 397 452 5 0 0 0 - - -, f 5;
#X obj 480 382 loadbang;
#X msg 397 427 550;
#N canvas 506 100 1090 556 chord 0;
#X obj 322 483 +~;
#X obj 322 517 outlet~;
#N canvas 468 174 492 356 saw 0;
#X obj 71 205 phasor~;
#X obj 100 114 mtof;
#X obj 71 230 *~;
#X obj 121 33 loadbang;
#X obj 100 89 +;
#X obj 74 33 r key;
#X obj 71 258 outlet~;
#X obj 71 153 *;
#X msg 65 114 -1;
#X msg 19 156 bang;
#X msg 30 114 1;
#X msg 121 56 12;
#X obj 71 179 +;
#X obj 272 153 rand 100;
#X obj 272 176 / 100;
#X obj 272 199 - 0.5;
#X obj 272 222 pack f f;
#X obj 254 69 r lngtmp;
#X obj 190 71 r lngbt;
#X floatatom 326 271 5 0 0 0 - - -, f 5;
#X floatatom 326 251 5 0 0 0 - - -, f 5;
#X obj 272 245 line;
#X obj 170 187 pack f f;
#X floatatom 224 236 5 0 0 0 - - -, f 5;
#X floatatom 224 216 5 0 0 0 - - -, f 5;
#X obj 170 210 line;
#X obj 170 118 rand 100;
#X obj 170 164 + 0.05;
#X obj 170 141 / 800;
#X connect 0 0 2 0;
#X connect 1 0 7 0;
#X connect 2 0 6 0;
#X connect 3 0 11 0;
#X connect 3 0 8 0;
#X connect 4 0 1 0;
#X connect 5 0 4 0;
#X connect 7 0 12 1;
#X connect 8 0 7 1;
#X connect 8 0 9 0;
#X connect 9 0 7 0;
#X connect 10 0 7 1;
#X connect 10 0 9 0;
#X connect 11 0 4 1;
#X connect 12 0 0 0;
#X connect 13 0 14 0;
#X connect 14 0 15 0;
#X connect 15 0 16 0;
#X connect 15 0 20 0;
#X connect 16 0 21 0;
#X connect 17 0 16 1;
#X connect 17 0 22 1;
#X connect 18 0 13 0;
#X connect 18 0 26 0;
#X connect 21 0 19 0;
#X connect 21 0 12 0;
#X connect 22 0 25 0;
#X connect 25 0 23 0;
#X connect 25 0 2 1;
#X connect 26 0 28 0;
#X connect 27 0 22 0;
#X connect 27 0 24 0;
#X connect 28 0 27 0;
#X restore 170 283 pd saw;
#X text 188 264 12;
#N canvas 766 172 497 352 saw 0;
#X obj 71 205 phasor~;
#X obj 100 114 mtof;
#X obj 71 230 *~;
#X obj 121 33 loadbang;
#X obj 100 89 +;
#X obj 74 33 r key;
#X obj 71 258 outlet~;
#X obj 71 153 *;
#X msg 65 114 -1;
#X msg 19 156 bang;
#X msg 30 114 1;
#X obj 71 179 +;
#X msg 121 56 7;
#X obj 272 153 rand 100;
#X obj 272 176 / 100;
#X obj 272 199 - 0.5;
#X obj 272 222 pack f f;
#X obj 254 69 r lngtmp;
#X obj 190 71 r lngbt;
#X floatatom 326 271 5 0 0 0 - - -, f 5;
#X floatatom 326 251 5 0 0 0 - - -, f 5;
#X obj 272 245 line;
#X obj 170 187 pack f f;
#X floatatom 224 236 5 0 0 0 - - -, f 5;
#X floatatom 224 216 5 0 0 0 - - -, f 5;
#X obj 170 210 line;
#X obj 170 118 rand 100;
#X obj 170 141 / 500;
#X obj 170 164 + 0.1;
#X connect 0 0 2 0;
#X connect 1 0 7 0;
#X connect 2 0 6 0;
#X connect 3 0 12 0;
#X connect 3 0 10 0;
#X connect 4 0 1 0;
#X connect 5 0 4 0;
#X connect 7 0 11 1;
#X connect 8 0 7 1;
#X connect 8 0 9 0;
#X connect 9 0 7 0;
#X connect 10 0 7 1;
#X connect 10 0 9 0;
#X connect 11 0 0 0;
#X connect 12 0 4 1;
#X connect 13 0 14 0;
#X connect 14 0 15 0;
#X connect 15 0 16 0;
#X connect 15 0 20 0;
#X connect 16 0 21 0;
#X connect 17 0 16 1;
#X connect 17 0 22 1;
#X connect 18 0 13 0;
#X connect 18 0 26 0;
#X connect 21 0 19 0;
#X connect 21 0 11 0;
#X connect 22 0 25 0;
#X connect 25 0 23 0;
#X connect 25 0 2 1;
#X connect 26 0 27 0;
#X connect 27 0 28 0;
#X connect 28 0 22 0;
#X connect 28 0 24 0;
#X restore 105 283 pd saw;
#X text 127 264 7;
#N canvas 251 130 491 330 saw 0;
#X obj 71 205 phasor~;
#X obj 100 114 mtof;
#X obj 71 230 *~;
#X obj 121 33 loadbang;
#X obj 100 89 +;
#X obj 74 33 r key;
#X obj 71 258 outlet~;
#X obj 71 153 *;
#X msg 65 114 -1;
#X msg 19 156 bang;
#X msg 30 114 1;
#X obj 272 153 rand 100;
#X obj 71 179 +;
#X obj 272 176 / 100;
#X obj 272 199 - 0.5;
#X obj 272 222 pack f f;
#X obj 254 69 r lngtmp;
#X obj 190 71 r lngbt;
#X floatatom 326 271 5 0 0 0 - - -, f 5;
#X floatatom 326 251 5 0 0 0 - - -, f 5;
#X obj 272 245 line;
#X msg 121 56 0;
#X obj 170 187 pack f f;
#X floatatom 224 236 5 0 0 0 - - -, f 5;
#X floatatom 224 216 5 0 0 0 - - -, f 5;
#X obj 170 210 line;
#X obj 170 118 rand 100;
#X obj 170 141 / 400;
#X obj 170 164 + 0.35;
#X connect 0 0 2 0;
#X connect 1 0 7 0;
#X connect 2 0 6 0;
#X connect 3 0 21 0;
#X connect 3 0 8 0;
#X connect 4 0 1 0;
#X connect 5 0 4 0;
#X connect 7 0 12 1;
#X connect 8 0 7 1;
#X connect 8 0 9 0;
#X connect 9 0 7 0;
#X connect 10 0 7 1;
#X connect 10 0 9 0;
#X connect 11 0 13 0;
#X connect 12 0 0 0;
#X connect 13 0 14 0;
#X connect 14 0 15 0;
#X connect 14 0 19 0;
#X connect 15 0 20 0;
#X connect 16 0 15 1;
#X connect 16 0 22 1;
#X connect 17 0 11 0;
#X connect 17 0 26 0;
#X connect 20 0 18 0;
#X connect 20 0 12 0;
#X connect 21 0 4 1;
#X connect 22 0 25 0;
#X connect 25 0 23 0;
#X connect 25 0 2 1;
#X connect 26 0 27 0;
#X connect 27 0 28 0;
#X connect 28 0 22 0;
#X connect 28 0 24 0;
#X restore 40 283 pd saw;
#N canvas 251 130 503 349 saw 0;
#X obj 71 205 phasor~;
#X obj 100 114 mtof;
#X obj 71 230 *~;
#X obj 121 33 loadbang;
#X obj 100 89 +;
#X obj 74 33 r key;
#X obj 71 258 outlet~;
#X obj 71 153 *;
#X msg 65 114 -1;
#X msg 19 156 bang;
#X msg 30 114 1;
#X obj 71 179 +;
#X msg 121 56 14;
#X obj 272 153 rand 100;
#X obj 272 176 / 100;
#X obj 272 199 - 0.5;
#X obj 272 222 pack f f;
#X obj 254 69 r lngtmp;
#X obj 190 71 r lngbt;
#X floatatom 326 271 5 0 0 0 - - -, f 5;
#X floatatom 326 251 5 0 0 0 - - -, f 5;
#X obj 272 245 line;
#X obj 170 187 pack f f;
#X floatatom 224 236 5 0 0 0 - - -, f 5;
#X floatatom 224 216 5 0 0 0 - - -, f 5;
#X obj 170 210 line;
#X obj 170 118 rand 100;
#X obj 170 164 + 0;
#X obj 170 141 / 5000;
#X connect 0 0 2 0;
#X connect 1 0 7 0;
#X connect 2 0 6 0;
#X connect 3 0 12 0;
#X connect 3 0 8 0;
#X connect 4 0 1 0;
#X connect 5 0 4 0;
#X connect 7 0 11 1;
#X connect 8 0 7 1;
#X connect 8 0 9 0;
#X connect 9 0 7 0;
#X connect 10 0 7 1;
#X connect 10 0 9 0;
#X connect 11 0 0 0;
#X connect 12 0 4 1;
#X connect 13 0 14 0;
#X connect 14 0 15 0;
#X connect 15 0 16 0;
#X connect 15 0 20 0;
#X connect 16 0 21 0;
#X connect 17 0 16 1;
#X connect 17 0 22 1;
#X connect 18 0 13 0;
#X connect 18 0 26 0;
#X connect 21 0 19 0;
#X connect 21 0 11 0;
#X connect 22 0 25 0;
#X connect 25 0 23 0;
#X connect 25 0 2 1;
#X connect 26 0 28 0;
#X connect 27 0 22 0;
#X connect 27 0 24 0;
#X connect 28 0 27 0;
#X restore 233 283 pd saw;
#X text 250 264 14;
#N canvas 251 130 447 369 saw 0;
#X obj 71 205 phasor~;
#X obj 100 114 mtof;
#X obj 71 230 *~;
#X obj 121 33 loadbang;
#X obj 100 89 +;
#X obj 74 33 r key;
#X obj 71 258 outlet~;
#X obj 71 153 *;
#X msg 65 114 -1;
#X msg 19 156 bang;
#X msg 30 114 1;
#X obj 71 179 +;
#X msg 121 56 16;
#X obj 272 153 rand 100;
#X obj 272 176 / 100;
#X obj 272 199 - 0.5;
#X obj 272 222 pack f f;
#X obj 254 69 r lngtmp;
#X obj 190 71 r lngbt;
#X floatatom 326 271 5 0 0 0 - - -, f 5;
#X floatatom 326 251 5 0 0 0 - - -, f 5;
#X obj 272 245 line;
#X obj 170 187 pack f f;
#X floatatom 224 236 5 0 0 0 - - -, f 5;
#X floatatom 224 216 5 0 0 0 - - -, f 5;
#X obj 170 210 line;
#X obj 170 118 rand 100;
#X obj 170 164 + 0;
#X obj 170 141 / 500;
#X connect 0 0 2 0;
#X connect 1 0 7 0;
#X connect 2 0 6 0;
#X connect 3 0 12 0;
#X connect 3 0 10 0;
#X connect 4 0 1 0;
#X connect 5 0 4 0;
#X connect 7 0 11 1;
#X connect 8 0 7 1;
#X connect 8 0 9 0;
#X connect 9 0 7 0;
#X connect 10 0 7 1;
#X connect 10 0 9 0;
#X connect 11 0 0 0;
#X connect 12 0 4 1;
#X connect 13 0 14 0;
#X connect 14 0 15 0;
#X connect 15 0 16 0;
#X connect 15 0 20 0;
#X connect 16 0 21 0;
#X connect 17 0 16 1;
#X connect 17 0 22 1;
#X connect 18 0 13 0;
#X connect 18 0 26 0;
#X connect 21 0 19 0;
#X connect 21 0 11 0;
#X connect 22 0 25 0;
#X connect 25 0 23 0;
#X connect 25 0 2 1;
#X connect 26 0 28 0;
#X connect 27 0 22 0;
#X connect 27 0 24 0;
#X connect 28 0 27 0;
#X restore 296 283 pd saw;
#X text 313 264 16;
#N canvas 251 130 451 370 saw 0;
#X obj 71 205 phasor~;
#X obj 100 114 mtof;
#X obj 71 230 *~;
#X obj 121 33 loadbang;
#X obj 100 89 +;
#X obj 74 33 r key;
#X obj 71 258 outlet~;
#X obj 71 153 *;
#X msg 65 114 -1;
#X msg 19 156 bang;
#X msg 30 114 1;
#X obj 71 179 +;
#X msg 121 56 17;
#X obj 272 153 rand 100;
#X obj 272 176 / 100;
#X obj 272 199 - 0.5;
#X obj 272 222 pack f f;
#X obj 254 71 r lngtmp;
#X obj 190 71 r lngbt;
#X floatatom 326 271 5 0 0 0 - - -, f 5;
#X floatatom 326 251 5 0 0 0 - - -, f 5;
#X obj 272 245 line;
#X obj 170 187 pack f f;
#X floatatom 224 236 5 0 0 0 - - -, f 5;
#X floatatom 224 216 5 0 0 0 - - -, f 5;
#X obj 170 210 line;
#X obj 170 118 rand 100;
#X obj 170 141 / 5000;
#X obj 170 164 + 0;
#X connect 0 0 2 0;
#X connect 1 0 7 0;
#X connect 2 0 6 0;
#X connect 3 0 12 0;
#X connect 3 0 8 0;
#X connect 4 0 1 0;
#X connect 5 0 4 0;
#X connect 7 0 11 1;
#X connect 8 0 7 1;
#X connect 8 0 9 0;
#X connect 9 0 7 0;
#X connect 10 0 7 1;
#X connect 10 0 9 0;
#X connect 11 0 0 0;
#X connect 12 0 4 1;
#X connect 13 0 14 0;
#X connect 14 0 15 0;
#X connect 15 0 16 0;
#X connect 15 0 20 0;
#X connect 16 0 21 0;
#X connect 17 0 16 1;
#X connect 17 0 22 1;
#X connect 18 0 13 0;
#X connect 18 0 26 0;
#X connect 21 0 19 0;
#X connect 21 0 11 0;
#X connect 22 0 25 0;
#X connect 25 0 23 0;
#X connect 25 0 2 1;
#X connect 26 0 27 0;
#X connect 27 0 28 0;
#X connect 28 0 22 0;
#X connect 28 0 24 0;
#X restore 359 283 pd saw;
#X text 378 265 17;
#N canvas 251 130 463 313 saw 0;
#X obj 71 205 phasor~;
#X obj 100 114 mtof;
#X obj 71 230 *~;
#X obj 121 33 loadbang;
#X obj 100 89 +;
#X obj 74 33 r key;
#X obj 71 258 outlet~;
#X obj 71 153 *;
#X msg 65 114 -1;
#X msg 19 156 bang;
#X msg 30 114 1;
#X obj 71 179 +;
#X msg 121 56 19;
#X obj 272 153 rand 100;
#X obj 272 176 / 100;
#X obj 272 199 - 0.5;
#X obj 272 222 pack f f;
#X obj 254 69 r lngtmp;
#X obj 190 71 r lngbt;
#X floatatom 326 271 5 0 0 0 - - -, f 5;
#X floatatom 326 251 5 0 0 0 - - -, f 5;
#X obj 272 245 line;
#X obj 170 187 pack f f;
#X floatatom 224 236 5 0 0 0 - - -, f 5;
#X floatatom 224 216 5 0 0 0 - - -, f 5;
#X obj 170 210 line;
#X obj 170 118 rand 100;
#X obj 170 141 / 300;
#X obj 170 164 + 0;
#X connect 0 0 2 0;
#X connect 1 0 7 0;
#X connect 2 0 6 0;
#X connect 3 0 12 0;
#X connect 3 0 10 0;
#X connect 4 0 1 0;
#X connect 5 0 4 0;
#X connect 7 0 11 1;
#X connect 8 0 7 1;
#X connect 8 0 9 0;
#X connect 9 0 7 0;
#X connect 10 0 7 1;
#X connect 10 0 9 0;
#X connect 11 0 0 0;
#X connect 12 0 4 1;
#X connect 13 0 14 0;
#X connect 14 0 15 0;
#X connect 15 0 16 0;
#X connect 15 0 20 0;
#X connect 16 0 21 0;
#X connect 17 0 16 1;
#X connect 17 0 22 1;
#X connect 18 0 13 0;
#X connect 18 0 26 0;
#X connect 21 0 19 0;
#X connect 21 0 11 0;
#X connect 22 0 25 0;
#X connect 25 0 23 0;
#X connect 25 0 2 1;
#X connect 26 0 27 0;
#X connect 27 0 28 0;
#X connect 28 0 22 0;
#X connect 28 0 24 0;
#X restore 422 283 pd saw;
#X text 437 265 19;
#N canvas 251 130 540 378 saw 0;
#X obj 71 205 phasor~;
#X obj 100 114 mtof;
#X obj 71 230 *~;
#X obj 121 33 loadbang;
#X obj 100 89 +;
#X obj 74 33 r key;
#X obj 71 258 outlet~;
#X obj 71 153 *;
#X msg 65 114 -1;
#X msg 19 156 bang;
#X msg 30 114 1;
#X obj 71 179 +;
#X msg 121 56 22;
#X obj 272 153 rand 100;
#X obj 272 176 / 100;
#X obj 272 199 - 0.5;
#X obj 272 222 pack f f;
#X obj 254 69 r lngtmp;
#X obj 190 71 r lngbt;
#X floatatom 326 271 5 0 0 0 - - -, f 5;
#X floatatom 326 251 5 0 0 0 - - -, f 5;
#X obj 272 245 line;
#X obj 170 187 pack f f;
#X floatatom 224 236 5 0 0 0 - - -, f 5;
#X floatatom 224 216 5 0 0 0 - - -, f 5;
#X obj 170 210 line;
#X obj 170 118 rand 100;
#X obj 170 141 / 500;
#X obj 170 164 + 0;
#X connect 0 0 2 0;
#X connect 1 0 7 0;
#X connect 2 0 6 0;
#X connect 3 0 12 0;
#X connect 3 0 10 0;
#X connect 4 0 1 0;
#X connect 5 0 4 0;
#X connect 7 0 11 1;
#X connect 8 0 7 1;
#X connect 8 0 9 0;
#X connect 9 0 7 0;
#X connect 10 0 7 1;
#X connect 10 0 9 0;
#X connect 11 0 0 0;
#X connect 12 0 4 1;
#X connect 13 0 14 0;
#X connect 14 0 15 0;
#X connect 15 0 16 0;
#X connect 15 0 20 0;
#X connect 16 0 21 0;
#X connect 17 0 16 1;
#X connect 17 0 22 1;
#X connect 18 0 13 0;
#X connect 18 0 26 0;
#X connect 21 0 19 0;
#X connect 21 0 11 0;
#X connect 22 0 25 0;
#X connect 25 0 23 0;
#X connect 25 0 2 1;
#X connect 26 0 27 0;
#X connect 27 0 28 0;
#X connect 28 0 22 0;
#X connect 28 0 24 0;
#X restore 553 283 pd saw;
#N canvas 251 130 452 329 saw 0;
#X obj 71 205 phasor~;
#X obj 100 114 mtof;
#X obj 71 230 *~;
#X obj 121 33 loadbang;
#X obj 100 89 +;
#X obj 74 33 r key;
#X obj 71 258 outlet~;
#X obj 71 153 *;
#X msg 65 114 -1;
#X msg 19 156 bang;
#X msg 30 114 1;
#X obj 71 179 +;
#X msg 121 56 21;
#X obj 272 153 rand 100;
#X obj 272 176 / 100;
#X obj 272 199 - 0.5;
#X obj 272 222 pack f f;
#X obj 254 69 r lngtmp;
#X obj 190 71 r lngbt;
#X floatatom 326 271 5 0 0 0 - - -, f 5;
#X floatatom 326 251 5 0 0 0 - - -, f 5;
#X obj 272 245 line;
#X obj 170 187 pack f f;
#X floatatom 224 236 5 0 0 0 - - -, f 5;
#X floatatom 224 216 5 0 0 0 - - -, f 5;
#X obj 170 210 line;
#X obj 170 118 rand 100;
#X obj 170 141 / 5000;
#X obj 170 164 + 0;
#X connect 0 0 2 0;
#X connect 1 0 7 0;
#X connect 2 0 6 0;
#X connect 3 0 12 0;
#X connect 3 0 8 0;
#X connect 4 0 1 0;
#X connect 5 0 4 0;
#X connect 7 0 11 1;
#X connect 8 0 7 1;
#X connect 8 0 9 0;
#X connect 9 0 7 0;
#X connect 10 0 7 1;
#X connect 10 0 9 0;
#X connect 11 0 0 0;
#X connect 12 0 4 1;
#X connect 13 0 14 0;
#X connect 14 0 15 0;
#X connect 15 0 16 0;
#X connect 15 0 20 0;
#X connect 16 0 21 0;
#X connect 17 0 16 1;
#X connect 17 0 22 1;
#X connect 18 0 13 0;
#X connect 18 0 26 0;
#X connect 21 0 19 0;
#X connect 21 0 11 0;
#X connect 22 0 25 0;
#X connect 25 0 23 0;
#X connect 25 0 2 0;
#X connect 26 0 27 0;
#X connect 27 0 28 0;
#X connect 28 0 22 0;
#X connect 28 0 24 0;
#X restore 486 283 pd saw;
#X text 502 263 21;
#X text 568 263 22;
#N canvas 251 130 508 327 saw 0;
#X obj 71 205 phasor~;
#X obj 100 114 mtof;
#X obj 71 230 *~;
#X obj 121 33 loadbang;
#X obj 100 89 +;
#X obj 74 33 r key;
#X obj 71 258 outlet~;
#X obj 71 153 *;
#X msg 65 114 -1;
#X msg 19 156 bang;
#X msg 30 114 1;
#X obj 71 179 +;
#X msg 121 56 33;
#X obj 272 153 rand 100;
#X obj 272 176 / 100;
#X obj 272 199 - 0.5;
#X obj 272 222 pack f f;
#X obj 254 69 r lngtmp;
#X obj 190 71 r lngbt;
#X floatatom 326 271 5 0 0 0 - - -, f 5;
#X floatatom 326 251 5 0 0 0 - - -, f 5;
#X obj 272 245 line;
#X obj 170 187 pack f f;
#X floatatom 224 236 5 0 0 0 - - -, f 5;
#X floatatom 224 216 5 0 0 0 - - -, f 5;
#X obj 170 210 line;
#X obj 170 118 rand 100;
#X obj 170 164 + 0;
#X obj 170 141 / 1200;
#X connect 0 0 2 0;
#X connect 1 0 7 0;
#X connect 2 0 6 0;
#X connect 3 0 12 0;
#X connect 3 0 8 0;
#X connect 4 0 1 0;
#X connect 5 0 4 0;
#X connect 7 0 11 1;
#X connect 8 0 7 1;
#X connect 8 0 9 0;
#X connect 9 0 7 0;
#X connect 10 0 7 1;
#X connect 10 0 9 0;
#X connect 11 0 0 0;
#X connect 12 0 4 1;
#X connect 13 0 14 0;
#X connect 14 0 15 0;
#X connect 15 0 16 0;
#X connect 15 0 20 0;
#X connect 16 0 21 0;
#X connect 17 0 16 1;
#X connect 17 0 22 1;
#X connect 18 0 13 0;
#X connect 18 0 26 0;
#X connect 21 0 19 0;
#X connect 21 0 11 0;
#X connect 22 0 25 0;
#X connect 25 0 23 0;
#X connect 25 0 2 1;
#X connect 26 0 28 0;
#X connect 27 0 22 0;
#X connect 27 0 24 0;
#X connect 28 0 27 0;
#X restore 869 283 pd saw;
#N canvas 251 130 450 333 saw 0;
#X obj 71 205 phasor~;
#X obj 100 114 mtof;
#X obj 71 230 *~;
#X obj 121 33 loadbang;
#X obj 100 89 +;
#X obj 74 33 r key;
#X obj 71 258 outlet~;
#X obj 71 153 *;
#X msg 65 114 -1;
#X msg 19 156 bang;
#X msg 30 114 1;
#X obj 71 179 +;
#X msg 121 56 24;
#X obj 272 153 rand 100;
#X obj 272 176 / 100;
#X obj 272 199 - 0.5;
#X obj 272 222 pack f f;
#X obj 254 69 r lngtmp;
#X obj 190 71 r lngbt;
#X floatatom 326 271 5 0 0 0 - - -, f 5;
#X floatatom 326 251 5 0 0 0 - - -, f 5;
#X obj 272 245 line;
#X obj 170 187 pack f f;
#X floatatom 224 236 5 0 0 0 - - -, f 5;
#X floatatom 224 216 5 0 0 0 - - -, f 5;
#X obj 170 210 line;
#X obj 170 118 rand 100;
#X obj 170 141 / 600;
#X obj 170 163 + 0;
#X connect 0 0 2 0;
#X connect 1 0 7 0;
#X connect 2 0 6 0;
#X connect 3 0 12 0;
#X connect 3 0 8 0;
#X connect 4 0 1 0;
#X connect 5 0 4 0;
#X connect 7 0 11 1;
#X connect 8 0 7 1;
#X connect 8 0 9 0;
#X connect 9 0 7 0;
#X connect 10 0 7 1;
#X connect 10 0 9 0;
#X connect 11 0 0 0;
#X connect 12 0 4 1;
#X connect 13 0 14 0;
#X connect 14 0 15 0;
#X connect 15 0 16 0;
#X connect 15 0 20 0;
#X connect 16 0 21 0;
#X connect 17 0 16 1;
#X connect 17 0 22 1;
#X connect 18 0 13 0;
#X connect 18 0 26 0;
#X connect 21 0 19 0;
#X connect 21 0 11 0;
#X connect 22 0 25 0;
#X connect 25 0 23 0;
#X connect 25 0 2 1;
#X connect 26 0 27 0;
#X connect 27 0 28 0;
#X connect 28 0 22 0;
#X connect 28 0 24 0;
#X restore 616 283 pd saw;
#X text 887 264 33;
#X text 630 264 24;
#N canvas 251 130 484 331 saw 0;
#X obj 71 205 phasor~;
#X obj 100 114 mtof;
#X obj 71 230 *~;
#X obj 121 33 loadbang;
#X obj 100 89 +;
#X obj 74 33 r key;
#X obj 71 258 outlet~;
#X obj 71 153 *;
#X msg 65 114 -1;
#X msg 19 156 bang;
#X msg 30 114 1;
#X obj 71 179 +;
#X msg 121 56 28;
#X obj 272 153 rand 100;
#X obj 272 176 / 100;
#X obj 272 199 - 0.5;
#X obj 272 222 pack f f;
#X obj 254 69 r lngtmp;
#X obj 190 71 r lngbt;
#X floatatom 326 271 5 0 0 0 - - -, f 5;
#X floatatom 326 251 5 0 0 0 - - -, f 5;
#X obj 272 245 line;
#X obj 170 187 pack f f;
#X floatatom 224 236 5 0 0 0 - - -, f 5;
#X floatatom 224 216 5 0 0 0 - - -, f 5;
#X obj 170 210 line;
#X obj 170 118 rand 100;
#X obj 170 141 / 500;
#X obj 170 164 + 0;
#X connect 0 0 2 0;
#X connect 1 0 7 0;
#X connect 2 0 6 0;
#X connect 3 0 12 0;
#X connect 3 0 8 0;
#X connect 4 0 1 0;
#X connect 5 0 4 0;
#X connect 7 0 11 1;
#X connect 8 0 7 1;
#X connect 8 0 9 0;
#X connect 9 0 7 0;
#X connect 10 0 7 1;
#X connect 10 0 9 0;
#X connect 11 0 0 0;
#X connect 12 0 4 1;
#X connect 13 0 14 0;
#X connect 14 0 15 0;
#X connect 15 0 16 0;
#X connect 15 0 20 0;
#X connect 16 0 21 0;
#X connect 17 0 16 1;
#X connect 17 0 22 1;
#X connect 18 0 13 0;
#X connect 18 0 26 0;
#X connect 21 0 19 0;
#X connect 21 0 11 0;
#X connect 22 0 25 0;
#X connect 25 0 23 0;
#X connect 25 0 2 1;
#X connect 26 0 27 0;
#X connect 27 0 28 0;
#X connect 28 0 22 0;
#X connect 28 0 24 0;
#X restore 742 283 pd saw;
#X text 759 265 28;
#N canvas 251 130 490 346 saw 0;
#X obj 71 205 phasor~;
#X obj 100 114 mtof;
#X obj 71 230 *~;
#X obj 121 33 loadbang;
#X obj 100 89 +;
#X obj 74 33 r key;
#X obj 71 258 outlet~;
#X obj 71 153 *;
#X msg 65 114 -1;
#X msg 19 156 bang;
#X msg 30 114 1;
#X obj 71 179 +;
#X msg 121 56 26;
#X obj 272 153 rand 100;
#X obj 272 176 / 100;
#X obj 272 199 - 0.5;
#X obj 272 222 pack f f;
#X obj 254 69 r lngtmp;
#X obj 190 71 r lngbt;
#X floatatom 326 271 5 0 0 0 - - -, f 5;
#X floatatom 326 251 5 0 0 0 - - -, f 5;
#X obj 272 245 line;
#X obj 170 187 pack f f;
#X floatatom 224 236 5 0 0 0 - - -, f 5;
#X floatatom 224 216 5 0 0 0 - - -, f 5;
#X obj 170 210 line;
#X obj 170 118 rand 100;
#X obj 170 141 / 1000;
#X obj 170 164 + 0;
#X connect 0 0 2 0;
#X connect 1 0 7 0;
#X connect 2 0 6 0;
#X connect 3 0 12 0;
#X connect 3 0 10 0;
#X connect 4 0 1 0;
#X connect 5 0 4 0;
#X connect 7 0 11 1;
#X connect 8 0 7 1;
#X connect 8 0 9 0;
#X connect 9 0 7 0;
#X connect 10 0 7 1;
#X connect 10 0 9 0;
#X connect 11 0 0 0;
#X connect 12 0 4 1;
#X connect 13 0 14 0;
#X connect 14 0 15 0;
#X connect 15 0 16 0;
#X connect 15 0 20 0;
#X connect 16 0 21 0;
#X connect 17 0 16 1;
#X connect 17 0 22 1;
#X connect 18 0 13 0;
#X connect 18 0 26 0;
#X connect 21 0 19 0;
#X connect 21 0 11 0;
#X connect 22 0 25 0;
#X connect 25 0 23 0;
#X connect 25 0 2 1;
#X connect 26 0 27 0;
#X connect 27 0 28 0;
#X connect 28 0 22 0;
#X connect 28 0 24 0;
#X restore 679 283 pd saw;
#N canvas 251 130 479 320 saw 0;
#X obj 71 205 phasor~;
#X obj 100 114 mtof;
#X obj 71 230 *~;
#X obj 121 33 loadbang;
#X obj 100 89 +;
#X obj 74 33 r key;
#X obj 71 258 outlet~;
#X obj 71 153 *;
#X msg 65 114 -1;
#X msg 19 156 bang;
#X msg 30 114 1;
#X obj 71 179 +;
#X msg 121 56 29;
#X obj 272 153 rand 100;
#X obj 272 176 / 100;
#X obj 272 199 - 0.5;
#X obj 272 222 pack f f;
#X obj 254 69 r lngtmp;
#X obj 190 71 r lngbt;
#X floatatom 326 271 5 0 0 0 - - -, f 5;
#X floatatom 326 251 5 0 0 0 - - -, f 5;
#X obj 272 245 line;
#X obj 170 187 pack f f;
#X floatatom 224 236 5 0 0 0 - - -, f 5;
#X floatatom 224 216 5 0 0 0 - - -, f 5;
#X obj 170 210 line;
#X obj 170 118 rand 100;
#X obj 170 163 + 0;
#X obj 170 141 / 800;
#X connect 0 0 2 0;
#X connect 1 0 7 0;
#X connect 2 0 6 0;
#X connect 3 0 12 0;
#X connect 3 0 10 0;
#X connect 4 0 1 0;
#X connect 5 0 4 0;
#X connect 7 0 11 1;
#X connect 8 0 7 1;
#X connect 8 0 9 0;
#X connect 9 0 7 0;
#X connect 10 0 7 1;
#X connect 10 0 9 0;
#X connect 11 0 0 0;
#X connect 12 0 4 1;
#X connect 13 0 14 0;
#X connect 14 0 15 0;
#X connect 15 0 16 0;
#X connect 15 0 20 0;
#X connect 16 0 21 0;
#X connect 17 0 16 1;
#X connect 17 0 22 1;
#X connect 18 0 13 0;
#X connect 18 0 26 0;
#X connect 21 0 19 0;
#X connect 21 0 11 0;
#X connect 22 0 25 0;
#X connect 25 0 23 0;
#X connect 25 0 2 1;
#X connect 26 0 28 0;
#X connect 27 0 22 0;
#X connect 27 0 24 0;
#X connect 28 0 27 0;
#X restore 808 283 pd saw;
#X text 825 264 29;
#X text 696 265 26;
#X text 60 263 0;
#X connect 0 0 1 0;
#X connect 2 0 0 0;
#X connect 4 0 0 0;
#X connect 6 0 0 0;
#X connect 7 0 0 0;
#X connect 9 0 0 0;
#X connect 11 0 0 0;
#X connect 13 0 0 0;
#X connect 15 0 0 0;
#X connect 16 0 0 0;
#X connect 19 0 0 0;
#X connect 20 0 0 0;
#X connect 23 0 0 0;
#X connect 25 0 0 0;
#X connect 26 0 0 0;
#X restore 133 159 pd chord;
#X floatatom 331 89 5 0 0 0 - - key, f 5;
#X obj 331 45 loadbang;
#X msg 331 66 38;
#X text 364 68 key sig;
#X obj 206 268 r lngbt;
#X obj 348 247 r lngbt;
#X msg 596 60 5000;
#X obj 596 105 s lngtmp;
#X obj 230 318 r lngtmp;
#X obj 447 314 r lngtmp;
#X obj 242 56 rand 100;
#X obj 181 343 pack f f;
#X obj 379 357 pack f f;
#X obj 242 158 line;
#X obj 242 134 pack f f;
#X obj 292 110 r lngtmp;
#X obj 266 30 r lngbt;
#X obj 142 257 -~;
#X obj 193 227 hsl 128 15 0 2 0 0 empty empty empty -2 -8 0 10 -262144
-1 -1 2381 1;
#X floatatom 190 244 5 0 0 0 - - -, f 5;
#X obj 181 293 rand 1000;
#X floatatom 596 83 5 0 0 0 - - -, f 5;
#X obj 519 86 s lngbt;
#X obj 519 63 metro;
#X obj 206 54 vsl 15 128 0.12 0.78 0 0 empty empty empty 0 -9 0 10
-262144 -1 -1 0 1;
#X obj 397 287 rand 500;
#N canvas 1118 352 450 300 record 0;
#X msg 58 170 open track.wav;
#X msg 183 170 start;
#X msg 255 170 stop;
#X obj 62 238 writesf~;
#X obj 32 126 inlet~;
#X obj 102 126 delay 50;
#X obj 173 126 delay 100;
#X obj 255 55 r vol;
#X obj 255 78 == 0;
#X obj 255 102 select 1;
#X obj 255 126 delay 5000;
#X obj 135 82 loadbang;
#X connect 5 0 0 0;
#X connect 6 0 1 0;
#X connect 8 0 9 0;
#X connect 9 0 10 0;
#X connect 10 0 2 0;
#X restore 146 679 pd record;
#X msg 203 202 0.375;
#X obj 242 81 / 125;
#X obj 242 106 + 0.15;
#X obj 658 612 line~;
#X msg 809 631 0 60000;
#X obj 808 604 delay 180000;
#X obj 509 482 cos~;
#X obj 509 507 lop~;
#X floatatom 508 454 5 0 0 0 - - -, f 5;
#X obj 594 375 vsl 15 128 0 1 0 0 empty empty empty 0 -9 0 10 -262144
-1 -1 635 1;
#X floatatom 607 539 5 0 0 0 - - -, f 5;
#X obj 512 535 *~;
#X obj 176 476 lop~;
#X obj 177 503 *~;
#X obj 301 294 rand 1200;
#X obj 301 318 + 500;
#X obj 301 342 pack f f;
#X obj 301 367 line;
#X msg 497 413 2000;
#X obj 231 555 *~;
#X obj 314 598 hsl 128 15 0 1 0 0 empty empty empty -2 -8 0 10 -262144
-1 -1 10160 1;
#X obj 402 559 loadbang;
#X msg 363 575 0.8;
#X obj 178 579 hip~ 1;
#X msg 645 60 750;
#X obj 231 528 +~;
#X obj 232 579 hip~ 1;
#X obj 527 19 loadbang;
#X obj 604 136 loadbang;
#X obj 58 166 loadbang;
#X obj 114 121 r saw;
#X obj 124 318 hip~ 1;
#X obj 566 316 r cos3;
#X obj 560 536 line~;
#X obj 560 511 pack f 50;
#X obj 484 282 line~;
#X obj 484 257 pack f 50;
#X obj 484 219 r cos2;
#X obj 292 523 line~;
#X obj 292 498 pack f 50;
#X obj 315 454 r cos1;
#N canvas 928 117 325 205 mix 0;
#X obj 80 45 hsl 128 15 0 1 0 0 saw empty sawtooth -2 -8 0 10 -262144
-1 -1 0 1;
#X obj 80 76 hsl 128 15 0 1 0 0 cos1 empty cosine_1 -2 -8 0 10 -262144
-1 -1 0 1;
#X obj 80 107 hsl 128 15 0 1 0 0 cos2 empty cosine_2 -2 -8 0 10 -262144
-1 -1 0 1;
#X obj 80 137 hsl 128 15 0 1 0 0 cos3 empty cosine_3 -2 -8 0 10 -262144
-1 -1 0 1;
#X obj 80 169 hsl 128 15 1 500 0 0 tempo empty shift_tempo -2 -8 0
10 -262144 -1 -1 0 1;
#X restore 389 149 pd mix;
#X obj 664 281 r play;
#X obj 861 415 select;
#X obj 861 396 tgl 15 0 empty empty empty 17 7 0 10 -262144 -1 -1 0
1;
#X obj 878 498 bng 15 250 50 0 empty empty empty 17 7 0 10 -262144
-1 -1;
#X msg 751 493 0;
#X obj 659 588 pack f 2000;
#X obj 674 83 r tempo;
#X obj 591 596 line~;
#X obj 618 626 *~;
#X obj 529 571 pack f 100;
#X obj 807 563 f;
#X obj 646 490 spigot;
#X obj 645 353 vsl 15 128 0 1 0 0 empty empty empty 0 -9 0 10 -262144
-1 -1 0 1;
#X floatatom 673 421 5 0 0 0 - - -, f 5;
#X obj 662 674 hsl 128 15 0 1 0 0 empty empty empty -2 -8 0 10 -262144
-1 -1 0 1;
#X obj 799 505 r vol;
#X floatatom 732 359 5 0 0 0 - - -, f 5;
#X obj 732 381 * 0.01;
#X obj 732 406 s vol;
#X text 77 55 myQuil;
#N canvas 302 389 450 300 info 0;
#X text 164 81 artist : myQuil;
#X text 172 98 title : squaw;
#X text 164 115 length : 310000;
#X restore 389 173 pd info;
#X obj 796 343 del 300000;
#X msg 796 368 0 10000;
#X obj 676 362 bng 15 250 50 0 empty empty empty 17 7 0 10 -262144
-1 -1;
#X obj 676 382 s play;
#X msg 349 667 0.05;
#X obj 519 635 line;
#X floatatom 519 660 5 0 0 0 - - -, f 5;
#X obj 718 617 line;
#X floatatom 718 642 5 0 0 0 - - -, f 5;
#X obj 706 322 t;
#X msg 547 120 0.1;
#X msg 343 373 0.3;
#X msg 585 341 0.05;
#X obj 258 645 *~ 0.62;
#X msg 643 321 0.6;
#X obj 712 284 bng 15 250 50 0 empty empty empty 17 7 0 10 -4096 -1
-1;
#X connect 1 0 139 0;
#X connect 3 0 11 0;
#X connect 4 0 9 0;
#X connect 4 0 75 0;
#X connect 5 0 4 0;
#X connect 5 0 6 0;
#X connect 5 0 17 0;
#X connect 9 0 18 0;
#X connect 9 0 21 0;
#X connect 10 0 5 1;
#X connect 11 0 13 0;
#X connect 12 0 9 1;
#X connect 14 0 6 0;
#X connect 15 0 8 0;
#X connect 16 0 11 0;
#X connect 17 0 86 0;
#X connect 19 0 25 0;
#X connect 19 0 102 0;
#X connect 20 0 17 1;
#X connect 20 0 24 0;
#X connect 21 0 31 0;
#X connect 22 0 88 0;
#X connect 23 0 99 0;
#X connect 27 0 53 0;
#X connect 28 0 20 0;
#X connect 29 0 48 0;
#X connect 30 0 47 0;
#X connect 31 0 22 0;
#X connect 31 0 69 0;
#X connect 32 0 31 1;
#X connect 33 0 34 0;
#X connect 33 0 81 0;
#X connect 34 0 32 0;
#X connect 35 0 94 0;
#X connect 37 0 38 0;
#X connect 38 0 36 0;
#X connect 40 0 56 0;
#X connect 41 0 61 0;
#X connect 41 0 77 0;
#X connect 42 0 57 0;
#X connect 44 0 47 1;
#X connect 45 0 48 1;
#X connect 45 0 79 1;
#X connect 46 0 64 0;
#X connect 47 0 10 0;
#X connect 48 0 12 0;
#X connect 49 0 27 1;
#X connect 50 0 49 0;
#X connect 51 0 50 1;
#X connect 52 0 46 0;
#X connect 54 0 55 0;
#X connect 54 0 53 1;
#X connect 56 0 30 0;
#X connect 57 0 43 0;
#X connect 57 0 59 1;
#X connect 59 0 58 0;
#X connect 60 0 27 1;
#X connect 61 0 29 0;
#X connect 63 0 54 0;
#X connect 64 0 65 0;
#X connect 65 0 50 0;
#X connect 66 0 113 1;
#X connect 67 0 66 0;
#X connect 68 0 67 0;
#X connect 69 0 70 0;
#X connect 70 0 74 0;
#X connect 71 0 70 1;
#X connect 72 0 73 0;
#X connect 72 0 97 0;
#X connect 74 0 88 0;
#X connect 75 0 76 0;
#X connect 76 0 88 0;
#X connect 77 0 78 0;
#X connect 78 0 79 0;
#X connect 79 0 80 0;
#X connect 80 0 75 1;
#X connect 81 0 71 0;
#X connect 82 0 89 0;
#X connect 83 0 82 1;
#X connect 84 0 85 0;
#X connect 85 0 83 0;
#X connect 86 0 1 0;
#X connect 87 0 57 0;
#X connect 88 0 82 0;
#X connect 89 0 1 0;
#X connect 89 0 8 0;
#X connect 90 0 59 0;
#X connect 90 0 87 0;
#X connect 91 0 136 0;
#X connect 91 0 137 0;
#X connect 91 0 138 0;
#X connect 92 0 28 0;
#X connect 92 0 63 0;
#X connect 93 0 20 0;
#X connect 94 0 5 0;
#X connect 95 0 97 0;
#X connect 96 0 74 1;
#X connect 97 0 96 0;
#X connect 98 0 22 1;
#X connect 99 0 98 0;
#X connect 100 0 99 0;
#X connect 101 0 18 1;
#X connect 101 0 76 1;
#X connect 102 0 101 0;
#X connect 103 0 102 0;
#X connect 105 0 135 0;
#X connect 106 0 109 0;
#X connect 106 1 108 0;
#X connect 107 0 106 0;
#X connect 107 0 116 1;
#X connect 108 0 115 0;
#X connect 109 0 110 0;
#X connect 110 0 66 0;
#X connect 110 0 133 0;
#X connect 111 0 57 0;
#X connect 112 0 113 0;
#X connect 113 0 1 1;
#X connect 114 0 112 0;
#X connect 114 0 131 0;
#X connect 115 0 110 0;
#X connect 116 0 110 0;
#X connect 117 0 118 0;
#X connect 117 0 116 0;
#X connect 119 0 114 0;
#X connect 119 0 115 1;
#X connect 120 0 114 0;
#X connect 120 0 115 1;
#X connect 121 0 122 0;
#X connect 122 0 123 0;
#X connect 126 0 127 0;
#X connect 127 0 66 0;
#X connect 128 0 129 0;
#X connect 130 0 1 1;
#X connect 131 0 132 0;
#X connect 133 0 134 0;
#X connect 135 0 140 0;
#X connect 135 1 126 0;
#X connect 135 1 107 0;
#X connect 136 0 23 0;
#X connect 137 0 19 0;
#X connect 138 0 72 0;
#X connect 139 0 2 0;
#X connect 139 0 2 1;
#X connect 140 0 117 0;
#X connect 141 0 135 0;
