#N canvas 719 355 450 300 10;
#X obj 150 60 inlet;
#X obj 150 146 +~;
#X obj 150 168 phasor~;
#X obj 150 190 *~;
#X obj 150 212 outlet~;
#X obj 201 114 rind -0.5 0.5;
#X obj 201 136 pad~;
#X obj 211 168 rind \$2 \$3;
#X obj 211 190 pad~;
#X obj 299 92 r bt;
#X obj 299 124 r mt;
#X obj 190 60 r pmnt;
#X obj 295 177 inlet;
#X obj 332 177 inlet;
#X obj 150 87 pad~;
#X obj 150 114 *~ \$1;
#X connect 0 0 14 0;
#X connect 1 0 2 0;
#X connect 2 0 3 0;
#X connect 3 0 4 0;
#X connect 5 0 6 0;
#X connect 6 0 1 0;
#X connect 7 0 8 0;
#X connect 8 0 3 1;
#X connect 9 0 5 0;
#X connect 9 0 7 0;
#X connect 10 0 6 1;
#X connect 10 0 8 1;
#X connect 11 0 14 1;
#X connect 12 0 7 1;
#X connect 13 0 7 2;
#X connect 14 0 15 0;
#X connect 15 0 1 1;
