#N canvas 719 355 450 300 10;
#X obj 213 151 *~;
#X obj 235 127 inlet~;
#X obj 205 173 dac~;
#X obj 213 104 -~ 0.27;
#X obj 145 188 outlet~;
#X obj 213 82 catch~ all;
#X connect 0 0 2 0;
#X connect 0 0 2 1;
#X connect 1 0 0 1;
#X connect 3 0 0 0;
#X connect 3 0 4 0;
#X connect 5 0 3 0;
#X coords 0 158 1 157 85 60 0;
