#N canvas 719 355 450 350 10;
#N canvas 0 0 450 300 (subpatch) 0;
#X array view 512 float 2 black black;
#X coords 0 1 512 -1 200 140 1;
#X restore 236 179 graph;
#X obj 287 35 r play;
#X obj 287 57 metro;
#X obj 287 79 s bt;
#X floatatom 332 57 5 0 0 0 - - -, f 5;
#X obj 332 78 s mt;
#X obj 79 267 bng 15 250 50 0 empty empty empty 17 7 0 10 -89572 -1
-1;
#X obj 79 287 s play;
#X obj 34 244 r vol;
#X floatatom 34 266 5 0 1000 0 - - -, f 5;
#X obj 34 287 / 1000;
#X obj 34 309 mix~;
#X obj 143 238 tgl 15 0 empty empty empty 17 7 0 10 -262144 -1 -1 0
1;
#X obj 143 258 metro 27.57;
#X obj 143 302 tabwrite~ view;
#X obj 161 280 catch~ all;
#N canvas 719 326 450 362 chord 0;
#X obj 49 12 r play;
#X obj 49 34 harm 38 7 12 14 16 17 19 21 22 24 26 28 29 33;
#X obj 68 78 inst 1 0.1 0.3;
#X obj 87 100 inst -1 0.05 0.175;
#X obj 106 122 inst -1 0 0.02;
#X obj 125 144 inst 1 0 0.2;
#X obj 144 166 inst -1 0 0.02;
#X obj 163 188 inst 1 0 0.333;
#X obj 182 210 inst -1 0 0.02;
#X obj 201 56 inst 1 0 0.2;
#X obj 220 78 inst -1 0 0.166;
#X obj 239 100 inst 1 0 0.1;
#X obj 258 122 inst -1 0 0.2;
#X obj 277 144 inst 1 0 0.125;
#X obj 296 166 inst -1 0 0.083;
#X obj 101 238 +~;
#X obj 284 238 +~;
#X obj 192 279 -~ 0.75;
#X obj 192 301 outlet~;
#X obj 94 12 r chrd;
#X obj 49 56 inst -1 0.3 0.5;
#X connect 0 0 1 0;
#X connect 1 0 20 0;
#X connect 1 1 2 0;
#X connect 1 2 3 0;
#X connect 1 3 4 0;
#X connect 1 4 5 0;
#X connect 1 5 6 0;
#X connect 1 6 7 0;
#X connect 1 7 8 0;
#X connect 1 8 9 0;
#X connect 1 9 10 0;
#X connect 1 10 11 0;
#X connect 1 11 12 0;
#X connect 1 12 13 0;
#X connect 1 13 14 0;
#X connect 2 0 15 0;
#X connect 3 0 15 0;
#X connect 4 0 15 0;
#X connect 5 0 15 0;
#X connect 6 0 15 0;
#X connect 7 0 15 0;
#X connect 8 0 15 0;
#X connect 9 0 16 0;
#X connect 10 0 16 0;
#X connect 11 0 16 0;
#X connect 12 0 16 0;
#X connect 13 0 16 0;
#X connect 14 0 16 0;
#X connect 15 0 17 0;
#X connect 16 0 17 0;
#X connect 17 0 18 0;
#X connect 19 0 1 0;
#X connect 20 0 15 0;
#X restore 38 24 pd chord;
#N canvas 719 325 450 300 raw 0;
#X obj 178 72 inlet~;
#X obj 178 94 hip~ 1;
#X obj 178 116 lop~;
#X obj 235 72 r bt;
#X obj 235 94 rind 1000 1100;
#X obj 235 116 pad;
#X obj 268 116 r mt;
#X obj 193 138 outlet~;
#X obj 178 160 *~;
#X obj 205 160 inlet;
#X obj 166 210 adac~;
#X obj 205 210 throw~ all;
#X connect 0 0 1 0;
#X connect 1 0 2 0;
#X connect 2 0 8 0;
#X connect 2 0 7 0;
#X connect 3 0 4 0;
#X connect 4 0 5 0;
#X connect 5 0 2 1;
#X connect 6 0 5 1;
#X connect 8 0 10 0;
#X connect 8 0 10 1;
#X connect 8 0 11 0;
#X connect 9 0 8 1;
#X restore 38 69 pd raw;
#X floatatom 83 48 5 0 1000 0 - - -, f 5;
#X obj 83 69 / 1000;
#N canvas 719 325 450 300 cos1 0;
#X obj 178 72 inlet~;
#X obj 178 94 cos~;
#X obj 183 116 outlet~;
#X obj 178 138 lop~;
#X obj 235 94 r bt;
#X obj 235 116 rind 500 1700;
#X obj 235 138 pad;
#X obj 268 138 r mt;
#X obj 178 160 *~;
#X obj 205 160 inlet;
#X obj 178 182 /~ 4;
#X obj 166 210 adac~;
#X obj 205 210 throw~ all;
#X connect 0 0 1 0;
#X connect 1 0 3 0;
#X connect 1 0 2 0;
#X connect 3 0 8 0;
#X connect 4 0 5 0;
#X connect 5 0 6 0;
#X connect 6 0 3 1;
#X connect 7 0 6 1;
#X connect 8 0 10 0;
#X connect 9 0 8 1;
#X connect 10 0 11 0;
#X connect 10 0 11 1;
#X connect 10 0 12 0;
#X restore 38 112 pd cos1;
#X floatatom 89 91 5 0 1000 0 - - -, f 5;
#X obj 89 112 / 1000;
#N canvas 719 325 450 300 cos2 0;
#X obj 168 58 inlet~;
#X obj 168 80 lop~;
#X obj 319 37 r bt;
#X obj 225 58 rind 125 625;
#X obj 225 80 pad;
#X obj 345 131 r mt;
#X obj 168 113 cos~;
#X obj 168 146 lop~;
#X obj 225 124 rind 550 600;
#X obj 225 146 pad;
#X obj 183 168 outlet~;
#X obj 168 190 *~;
#X obj 195 190 inlet;
#X obj 168 212 /~ 4;
#X obj 156 240 adac~;
#X obj 195 240 throw~ all;
#X connect 0 0 1 0;
#X connect 1 0 6 0;
#X connect 2 0 3 0;
#X connect 2 0 8 0;
#X connect 3 0 4 0;
#X connect 4 0 1 1;
#X connect 5 0 4 1;
#X connect 5 0 9 1;
#X connect 6 0 7 0;
#X connect 7 0 11 0;
#X connect 7 0 10 0;
#X connect 8 0 9 0;
#X connect 9 0 7 1;
#X connect 11 0 13 0;
#X connect 12 0 11 1;
#X connect 13 0 14 0;
#X connect 13 0 14 1;
#X connect 13 0 15 0;
#X restore 38 155 pd cos2;
#X floatatom 89 134 5 0 1000 0 - - -, f 5;
#X obj 89 155 / 1000;
#N canvas 719 324 450 300 cos3 0;
#X obj 188 82 inlet~;
#X obj 188 104 cos~;
#X obj 188 126 lop~;
#X obj 233 82 r bt;
#X obj 233 104 rind 2000 2500;
#X obj 233 126 pad;
#X obj 260 126 r mt;
#X obj 203 148 outlet~;
#X obj 188 170 *~;
#X obj 215 170 inlet;
#X obj 188 192 /~ 4;
#X obj 176 220 adac~;
#X obj 215 220 throw~ all;
#X connect 0 0 1 0;
#X connect 1 0 2 0;
#X connect 2 0 8 0;
#X connect 2 0 7 0;
#X connect 3 0 4 0;
#X connect 4 0 5 0;
#X connect 5 0 2 1;
#X connect 6 0 5 1;
#X connect 8 0 10 0;
#X connect 9 0 8 1;
#X connect 10 0 11 0;
#X connect 10 0 11 1;
#X connect 10 0 12 0;
#X restore 38 198 pd cos3;
#X floatatom 89 177 5 0 1000 0 - - -, f 5;
#X obj 89 198 / 1000;
#X obj 142 69 pad 10000;
#X obj 173 90 del 20000;
#X obj 142 112 pad 20000;
#X obj 172 133 del 40000;
#X obj 142 155 pad 20000;
#X obj 172 176 del 60000;
#X obj 142 198 pad 20000;
#X obj 209 26 del 60000;
#X floatatom 383 57 5 0 0 0 - - -, f 5;
#X obj 383 78 s pmnt;
#X obj 383 35 ii 500;
#X msg 142 47 1000;
#X msg 142 90 900;
#X msg 142 133 1000;
#N canvas 1187 355 450 323 msg 1;
#X obj 70 47 cupqb;
#X msg 70 84 k \$1;
#X obj 70 266 s chrd;
#X obj 110 47 cupqb;
#X msg 110 84 ot \$1;
#X obj 70 240 t b a;
#X obj 155 47 cupqb;
#X msg 155 84 ref \$1;
#X msg 214 136 d s d r m- f s l- t- d r m- f l-;
#X msg 214 155 d s d r m+ f s l+ t+ d r m+ f l+;
#X msg 157 233 d 7 12 14 16 17 19 21 22 24 26 28 29 33;
#X msg 229 61 scl 8 t+;
#X msg 229 80 scl 8 t-;
#X msg 202 199 peek;
#X connect 0 0 1 0;
#X connect 1 0 5 0;
#X connect 3 0 4 0;
#X connect 4 0 5 0;
#X connect 5 0 2 0;
#X connect 5 1 2 0;
#X connect 6 0 7 0;
#X connect 7 0 5 0;
#X connect 8 0 5 0;
#X connect 9 0 5 0;
#X connect 10 0 5 0;
#X connect 11 0 5 0;
#X connect 12 0 5 0;
#X connect 13 0 5 0;
#X restore 279 117 pd msg;
#X msg 142 176 350;
#X obj 332 35 ii 2000;
#X msg 179 26 200;
#X connect 1 0 2 0;
#X connect 1 0 40 0;
#X connect 1 0 30 0;
#X connect 1 0 32 0;
#X connect 1 0 34 0;
#X connect 1 0 36 0;
#X connect 2 0 3 0;
#X connect 4 0 2 1;
#X connect 4 0 5 0;
#X connect 6 0 7 0;
#X connect 8 0 9 0;
#X connect 9 0 10 0;
#X connect 10 0 11 0;
#X connect 12 0 13 0;
#X connect 13 0 14 0;
#X connect 15 0 14 0;
#X connect 16 0 17 0;
#X connect 17 0 20 0;
#X connect 18 0 19 0;
#X connect 19 0 17 1;
#X connect 20 0 23 0;
#X connect 21 0 22 0;
#X connect 22 0 20 1;
#X connect 23 0 26 0;
#X connect 24 0 25 0;
#X connect 25 0 23 1;
#X connect 27 0 28 0;
#X connect 28 0 26 1;
#X connect 29 0 18 0;
#X connect 30 0 41 0;
#X connect 31 0 21 0;
#X connect 32 0 42 0;
#X connect 33 0 24 0;
#X connect 34 0 44 0;
#X connect 35 0 27 0;
#X connect 36 0 46 0;
#X connect 37 0 38 0;
#X connect 39 0 37 0;
#X connect 40 0 29 0;
#X connect 41 0 31 0;
#X connect 42 0 33 0;
#X connect 44 0 35 0;
#X connect 45 0 4 0;
#X connect 46 0 29 0;
