#N canvas 719 355 450 350 10;
#N canvas 0 0 450 300 (subpatch) 0;
#X array view 512 float 2 black black;
#X coords 0 1 512 -1 200 140 1;
#X restore 243 189 graph;
#X obj 287 35 r play;
#X obj 287 57 metro;
#X obj 287 79 s bt;
#X obj 332 35 ii 2000;
#X floatatom 332 57 5 0 0 0 - - -, f 5;
#X obj 332 78 s mt;
#X obj 83 232 bng 15 250 50 0 empty empty empty 17 7 0 10 -89572 -1
-1;
#X obj 89 252 s play;
#X obj 34 234 r vol;
#X floatatom 34 256 5 0 1000 0 - - -, f 5;
#X obj 34 277 / 1000;
#X obj 142 254 tgl 15 0 empty empty empty 17 7 0 10 -262144 -1 -1 0
1;
#X obj 142 274 metro 27.57;
#X obj 143 303 tabwrite~ view;
#X obj 383 35 ii 500;
#X floatatom 383 57 5 0 0 0 - - -, f 5;
#X obj 383 78 s pmnt;
#X text 370 95 portamento;
#X floatatom 383 127 5 0 0 0 - - -, f 5;
#X obj 383 148 s dis;
#X text 368 164 dissonance;
#N canvas 1187 355 450 350 msg 0;
#X obj 53 67 cupqb;
#X msg 53 104 k \$1;
#X obj 60 260 t b a;
#X obj 60 286 s chrd;
#X obj 98 67 cupqb;
#X msg 98 104 ot \$1;
#X obj 143 67 cupqb;
#X msg 143 104 ref \$1;
#X msg 211 63 scl 8 t+;
#X msg 211 82 scl 8 t-;
#X msg 204 147 d s d r m+ f s l+ t+ d r m+ f l+;
#X msg 204 166 d s d r m- f s l- t- d r m- f l-;
#X msg 189 200 d 7 12 14 16 17 19 21 22 24 26 28 29 33;
#X msg 24 202 peek;
#X msg 53 45 69;
#X msg 143 45 72;
#X msg 189 219 d s d r m-23 f s l-23 t-23 d r m-23 f l-23;
#X obj 359 42 cupqb;
#X obj 321 42 cupqb;
#X obj 283 99 pack;
#X msg 283 121 scl \$2 \$1;
#X obj 283 42 cupqb;
#X msg 358 90 0;
#X obj 358 112 s phzr;
#X msg 189 257 d -7 1 2 3 4 -4 -3 -2 -1 10 11 12 13;
#X msg 189 238 d -7 -1 1 2 3 4 10 11 12 13 14 15;
#X floatatom 225 107 5 0 0 0 - - -, f 5;
#X msg 201 126 oct \$1;
#X msg 189 276 d -7 1 2 3 4;
#X msg 98 45 1;
#X connect 0 0 1 0;
#X connect 1 0 2 0;
#X connect 2 0 3 0;
#X connect 2 1 3 0;
#X connect 4 0 5 0;
#X connect 5 0 2 0;
#X connect 6 0 7 0;
#X connect 7 0 2 0;
#X connect 8 0 2 0;
#X connect 9 0 2 0;
#X connect 10 0 2 0;
#X connect 11 0 2 0;
#X connect 12 0 2 0;
#X connect 13 0 2 0;
#X connect 14 0 0 0;
#X connect 15 0 6 0;
#X connect 16 0 2 0;
#X connect 17 0 19 0;
#X connect 18 0 19 1;
#X connect 19 0 20 0;
#X connect 20 0 2 0;
#X connect 21 0 19 1;
#X connect 21 0 19 0;
#X connect 22 0 23 0;
#X connect 24 0 2 0;
#X connect 25 0 2 0;
#X connect 26 0 27 0;
#X connect 27 0 2 0;
#X connect 28 0 2 0;
#X connect 29 0 4 0;
#X restore 297 134 pd msg;
#N canvas 719 325 450 360 chord 0;
#X obj 49 12 r chrd;
#X obj 49 34 harm 38 7 12 14 16 17 19 21 22 24 26 28 29 33;
#X obj 49 56 inst 1 0.3 0.5;
#X obj 68 78 inst -1 0.1 0.3;
#X obj 87 100 inst 1 0.05 0.175;
#X obj 106 122 inst 1 0 0.02;
#X obj 125 144 inst -1 0 0.2;
#X obj 144 166 inst 1 0 0.02;
#X obj 163 188 inst -1 0 0.333;
#X obj 182 210 inst 1 0 0.02;
#X obj 201 56 inst -1 0 0.2;
#X obj 220 78 inst 1 0 0.166;
#X obj 239 100 inst -1 0 0.1;
#X obj 258 122 inst 1 0 0.2;
#X obj 277 144 inst -1 0 0.125;
#X obj 296 166 inst 1 0 0.083;
#X obj 101 238 +~;
#X obj 284 238 +~;
#X obj 192 301 outlet~;
#X obj 393 19 ii;
#X msg 366 45 all 1;
#X msg 367 67 k 69;
#X msg 367 89 ot 1;
#X msg 367 111 ref 72;
#X msg 176 266 d s d r m-23 f s l-23 t-23 d r m-23 f l-23;
#X connect 0 0 1 0;
#X connect 1 0 2 0;
#X connect 1 1 3 0;
#X connect 1 2 4 0;
#X connect 1 3 5 0;
#X connect 1 4 6 0;
#X connect 1 5 7 0;
#X connect 1 6 8 0;
#X connect 1 7 9 0;
#X connect 1 8 10 0;
#X connect 1 9 11 0;
#X connect 1 10 12 0;
#X connect 1 11 13 0;
#X connect 1 12 14 0;
#X connect 1 13 15 0;
#X connect 2 0 16 0;
#X connect 3 0 16 0;
#X connect 4 0 16 0;
#X connect 5 0 16 0;
#X connect 6 0 16 0;
#X connect 7 0 16 0;
#X connect 8 0 16 0;
#X connect 9 0 16 0;
#X connect 10 0 17 0;
#X connect 11 0 17 0;
#X connect 12 0 17 0;
#X connect 13 0 17 0;
#X connect 14 0 17 0;
#X connect 15 0 17 0;
#X connect 16 0 18 0;
#X connect 17 0 18 0;
#X connect 19 0 20 0;
#X connect 19 0 21 0;
#X connect 19 0 22 0;
#X connect 19 0 23 0;
#X connect 19 0 24 0;
#X connect 20 0 1 0;
#X connect 21 0 1 0;
#X connect 22 0 1 0;
#X connect 23 0 1 0;
#X connect 24 0 1 0;
#X restore 38 24 pd chord;
#N canvas 719 325 450 300 raw 0;
#X obj 178 72 inlet~;
#X obj 178 116 lop~;
#X obj 235 72 r bt;
#X obj 235 94 rind 1000 1100;
#X obj 235 116 pad;
#X obj 268 116 r mt;
#X obj 193 138 outlet~;
#X obj 178 160 *~;
#X obj 205 160 inlet;
#X obj 178 182 /~ 1.25;
#X obj 205 210 throw~ all;
#X connect 0 0 1 0;
#X connect 1 0 7 0;
#X connect 1 0 6 0;
#X connect 2 0 3 0;
#X connect 3 0 4 0;
#X connect 4 0 1 1;
#X connect 5 0 4 1;
#X connect 7 0 9 0;
#X connect 8 0 7 1;
#X connect 9 0 10 0;
#X restore 38 69 pd raw;
#X floatatom 83 48 5 0 1000 0 - - -, f 5;
#X obj 83 69 / 1000;
#N canvas 719 325 450 300 cos1 0;
#X obj 178 72 inlet~;
#X obj 178 94 cos~;
#X obj 183 116 outlet~;
#X obj 178 138 lop~;
#X obj 235 94 r bt;
#X obj 235 116 rind 500 1700;
#X obj 235 138 pad;
#X obj 268 138 r mt;
#X obj 178 160 *~;
#X obj 205 160 inlet;
#X obj 178 182 /~ 3.25;
#X obj 205 210 throw~ all;
#X connect 0 0 1 0;
#X connect 1 0 3 0;
#X connect 1 0 2 0;
#X connect 3 0 8 0;
#X connect 4 0 5 0;
#X connect 5 0 6 0;
#X connect 6 0 3 1;
#X connect 7 0 6 1;
#X connect 8 0 10 0;
#X connect 9 0 8 1;
#X connect 10 0 11 0;
#X restore 38 112 pd cos1;
#X floatatom 89 91 5 0 1000 0 - - -, f 5;
#X obj 89 112 / 1000;
#N canvas 719 325 450 300 cos2 0;
#X obj 168 58 inlet~;
#X obj 168 80 lop~;
#X obj 168 113 cos~;
#X obj 168 146 lop~;
#X obj 183 168 outlet~;
#X obj 168 190 *~;
#X obj 195 190 inlet;
#X obj 168 212 /~ 3.25;
#X obj 195 240 throw~ all;
#X obj 225 58 rind 125 625;
#X obj 225 80 pad;
#X obj 225 124 rind 550 600;
#X obj 225 146 pad;
#X obj 319 37 r bt;
#X obj 345 131 r mt;
#X connect 0 0 1 0;
#X connect 1 0 2 0;
#X connect 2 0 3 0;
#X connect 3 0 4 0;
#X connect 3 0 5 0;
#X connect 5 0 7 0;
#X connect 6 0 5 1;
#X connect 7 0 8 0;
#X connect 9 0 10 0;
#X connect 10 0 1 1;
#X connect 11 0 12 0;
#X connect 12 0 3 1;
#X connect 13 0 9 0;
#X connect 13 0 11 0;
#X connect 14 0 10 1;
#X connect 14 0 12 1;
#X restore 38 155 pd cos2;
#X floatatom 89 134 5 0 1000 0 - - -, f 5;
#X obj 89 155 / 1000;
#N canvas 719 325 450 300 cos3 0;
#X obj 188 82 inlet~;
#X obj 188 104 cos~;
#X obj 188 126 lop~;
#X obj 233 82 r bt;
#X obj 233 104 rind 2000 2500;
#X obj 233 126 pad;
#X obj 260 126 r mt;
#X obj 203 148 outlet~;
#X obj 188 170 *~;
#X obj 215 170 inlet;
#X obj 188 192 /~ 3.25;
#X obj 215 220 throw~ all;
#X connect 0 0 1 0;
#X connect 1 0 2 0;
#X connect 2 0 8 0;
#X connect 2 0 7 0;
#X connect 3 0 4 0;
#X connect 4 0 5 0;
#X connect 5 0 2 1;
#X connect 6 0 5 1;
#X connect 8 0 10 0;
#X connect 9 0 8 1;
#X connect 10 0 11 0;
#X restore 38 198 pd cos3;
#X floatatom 89 177 5 0 1000 0 - - -, f 5;
#X obj 89 198 / 1000;
#X msg 142 47 1000;
#X obj 142 69 pad 10000;
#X floatatom 205 69 5 0 0 0 - - -, f 5;
#X msg 142 90 1000;
#X obj 142 112 pad 20000;
#X floatatom 205 112 5 0 0 0 - - -, f 5;
#X msg 142 133 1000;
#X obj 142 155 pad 20000;
#X floatatom 205 155 5 0 0 0 - - -, f 5;
#X obj 172 176 del 60000;
#X obj 142 198 pad 20000;
#X floatatom 205 198 5 0 0 0 - - -, f 5;
#X obj 209 26 del 50000;
#X msg 209 48 20000;
#X msg 179 26 750;
#X obj 357 123 ii;
#X obj 172 133 del 30000;
#X msg 142 176 1000;
#X obj 84 275 s chrd;
#N canvas 719 325 450 300 rec 0;
#X obj 227 69 bng 15 250 50 0 empty empty empty 17 7 0 10 -262144 -1
-1;
#X obj 177 232 writesf~ 2;
#X msg 249 121 start;
#X msg 322 137 stop;
#X obj 142 174 inlet~;
#X msg 227 89 open squaw.wav;
#X connect 0 0 5 0;
#X connect 2 0 1 0;
#X connect 3 0 1 0;
#X connect 4 0 1 0;
#X connect 4 0 1 1;
#X connect 5 0 1 0;
#X restore 34 321 pd rec;
#X msg 157 222 0;
#X msg 118 26 400;
#N canvas 719 325 450 300 mix 0;
#X obj 234 156 *~;
#X obj 256 132 inlet~;
#X obj 226 178 dac~;
#X obj 234 109 hip~ 1;
#X obj 166 193 outlet~;
#X obj 234 87 catch~ all;
#X connect 0 0 2 0;
#X connect 0 0 2 1;
#X connect 1 0 0 1;
#X connect 3 0 0 0;
#X connect 3 0 4 0;
#X connect 5 0 3 0;
#X restore 34 299 pd mix;
#X connect 1 0 2 0;
#X connect 1 0 36 0;
#X connect 1 0 45 0;
#X connect 1 0 48 0;
#X connect 1 0 39 0;
#X connect 1 0 52 0;
#X connect 2 0 3 0;
#X connect 4 0 5 0;
#X connect 5 0 2 1;
#X connect 5 0 6 0;
#X connect 7 0 8 0;
#X connect 7 0 54 0;
#X connect 9 0 10 0;
#X connect 10 0 11 0;
#X connect 11 0 58 0;
#X connect 12 0 13 0;
#X connect 13 0 14 0;
#X connect 15 0 16 0;
#X connect 16 0 17 0;
#X connect 19 0 20 0;
#X connect 23 0 24 0;
#X connect 24 0 27 0;
#X connect 25 0 26 0;
#X connect 26 0 24 1;
#X connect 27 0 30 0;
#X connect 28 0 29 0;
#X connect 29 0 27 1;
#X connect 30 0 33 0;
#X connect 31 0 32 0;
#X connect 32 0 30 1;
#X connect 34 0 35 0;
#X connect 35 0 33 1;
#X connect 36 0 37 0;
#X connect 38 0 37 1;
#X connect 39 0 40 0;
#X connect 40 0 28 0;
#X connect 41 0 40 1;
#X connect 42 0 43 0;
#X connect 43 0 31 0;
#X connect 44 0 43 1;
#X connect 45 0 53 0;
#X connect 46 0 34 0;
#X connect 47 0 46 1;
#X connect 48 0 49 0;
#X connect 48 0 50 0;
#X connect 48 0 57 0;
#X connect 49 0 37 1;
#X connect 50 0 37 0;
#X connect 51 0 19 0;
#X connect 52 0 42 0;
#X connect 53 0 46 0;
#X connect 56 0 46 0;
#X connect 57 0 40 0;
#X connect 58 0 55 0;
#X connect 58 0 14 0;
