#N canvas 853 377 193 211 10;
#X obj 65 28 inlet;
#X obj 65 169 outlet;
#X obj 65 48 demux;
#X obj 104 28 inlet;
#X text 49 6 keyboard reverse;
#X obj 92 107 @- 124;
#X connect 0 0 2 0;
#X connect 2 0 1 0;
#X connect 2 1 5 0;
#X connect 3 0 2 1;
#X connect 5 0 1 0;
#X coords 0 0 1 1 200 140 0;
